<?xml version="1.0" standalone="no"?>
<!DOCTYPE svg PUBLIC "-//W3C//DTD SVG 1.1//EN" "http://www.w3.org/Graphics/SVG/1.1/DTD/svg11.dtd" >
<svg xmlns="http://www.w3.org/2000/svg">
<metadata></metadata>
<defs>
<font id="asulbold" horiz-adv-x="1316" >
<font-face units-per-em="2048" ascent="1638" descent="-410" />
<missing-glyph horiz-adv-x="460" />
<glyph horiz-adv-x="0" />
<glyph unicode="&#xd;" horiz-adv-x="681" />
<glyph unicode=" "  horiz-adv-x="460" />
<glyph unicode="&#x09;" horiz-adv-x="460" />
<glyph unicode="&#xa0;" horiz-adv-x="460" />
<glyph unicode="!" horiz-adv-x="626" d="M102 1376v35l353 55l26 -39q-14 -82 -32.5 -536.5t-18.5 -487.5l-223 -32q0 461 -19 823q-12 135 -86 182zM197 155q0 26 2 38l18 16q115 37 225 37l23 -13q18 -16 25.5 -69t7.5 -82t-4 -51l-19 -17q-100 -29 -219 -37l-23 11q-16 29 -26 85t-10 82z" />
<glyph unicode="&#x22;" horiz-adv-x="1038" d="M203 1292.5q0 83.5 16 112.5l33 25q39 12 86 12t84 -12l29 -23q16 -25 16 -91.5t-23.5 -230t-46.5 -221.5h-127q-12 29 -32 144q-35 201 -35 284.5zM571 1292.5q0 83.5 17 112.5l33 25q41 12 87 12t83 -12l28 -23q16 -25 16.5 -91.5t-23.5 -230t-46 -221.5h-127 q-12 29 -33 144q-35 201 -35 284.5z" />
<glyph unicode="#" horiz-adv-x="1247" d="M4 408l45 190h256l35 199h-264l51 190h244l59 422l191 37l6 -29q-18 -61 -32.5 -121.5t-57.5 -308.5h274l59 422l191 37l4 -29q-37 -113 -90 -430h237l-38 -190h-230l-33 -199h228l-41 -190h-217q-8 -57 -9.5 -75t-40.5 -345h-200l-4 28q29 96 84 392h-269 q-10 -82 -10 -89l-41 -331h-201l-4 28q29 96 84 392h-266zM473 598h272l35 199h-274q-31 -186 -33 -199z" />
<glyph unicode="$" horiz-adv-x="1271" d="M111 119q6 145 114 276q156 -168 340 -227v467q-61 27 -87.5 38t-82 38.5t-82 48t-65.5 56.5t-58 71q-47 88 -47 190q0 172 118 265.5t304 111.5q-4 111 -8 168l156 53l10 -28q-14 -123 -16 -191q203 -14 403 -100q-23 -152 -104 -289q-147 133 -299 186v-393 q86 -35 128 -53.5t113.5 -61.5t107.5 -85t64.5 -109.5t28.5 -147.5q0 -186 -119 -292.5t-323 -128.5q0 -127 8 -218l-164 -32l-10 28q12 86 20 215q-252 10 -450 144zM395 1133q0 -125 170 -211v358q-66 0 -133 -29q-37 -36 -37 -118zM707 147q76 0 133 31q39 51 39 160 q0 139 -172 231v-422z" />
<glyph unicode="%" horiz-adv-x="1742" d="M53 1024q0 193 98.5 306.5t254 113.5t234.5 -115t79 -299t-90 -309t-244 -125t-243 117.5t-89 310.5zM246 1059q0 -334 166 -334q47 0 69 35q45 57 45 241q0 307 -151 308q-59 0 -86 -31q-43 -78 -43 -219zM332 -39l2 12q84 121 292 473.5t310 534.5l262 485l213 9 l-2 -13q-86 -123 -297 -476t-305 -523l-260 -486zM997 391.5q0 192.5 98.5 306t254 113.5t234.5 -114.5t79 -299t-90 -309.5t-243.5 -125t-243 118t-89.5 310.5zM1190 426q0 -334 166 -334q47 0 69 35q45 58 45 242q0 307 -151 307q-59 0 -86 -31q-43 -78 -43 -219z" />
<glyph unicode="&#x26;" horiz-adv-x="1751" d="M82 451q0 172 84 267t194 132q-129 156 -129 319q0 287 420 287q133 0 261 -25.5t178 -44.5q-6 -55 -24.5 -114.5t-84.5 -136.5q-215 168 -344 168q-72 0 -115 -43t-43 -111q0 -199 391 -508q156 -121 279 -207q12 68 12 170.5t-33 202.5l-233 4l113 145q164 -12 243 -12 l316 8l-70 -145h-129q8 -69 8 -145q0 -186 -67 -334q215 -127 450 -244l-172 -221q-195 137 -401 291q-182 -176 -493.5 -176.5t-461 133t-149.5 340.5zM367 499.5q0 -149.5 99 -256t270 -106.5t292 82q10 6 29 25q-262 195 -363.5 276.5t-230.5 214.5q-96 -86 -96 -235.5z " />
<glyph unicode="'" horiz-adv-x="651" d="M194.5 1292.5q0.5 83.5 16.5 112.5l33 25q41 12 87 12t83 -12l28 -23q16 -25 16.5 -91.5t-23 -230t-46.5 -221.5h-127q-12 29 -33 144q-35 201 -34.5 284.5z" />
<glyph unicode="(" horiz-adv-x="919" d="M150 565q0 559 362 836q129 98 276 149l19 -6q37 -70 47 -112q-264 -102 -367 -345q-88 -209 -88 -539.5t106.5 -521t348.5 -286.5q-6 -41 -47 -111l-19 -6q-272 94 -455 338t-183 604z" />
<glyph unicode=")" horiz-adv-x="919" d="M66 -260q242 96 348 286.5t106 542.5q0 504 -229 723q-92 88 -225 140q10 43 47 112l18 6q148 -51 279 -149q360 -276 360 -836q0 -360 -183.5 -604t-455.5 -338l-18 6q-41 70 -47 111z" />
<glyph unicode="*" horiz-adv-x="872" d="M76 1161l47 2q104 -33 209 -47q-127 117 -180 141l-17 46l172 122l41 -36q31 -117 88 -220q63 111 88 220l41 36l172 -122l-16 -46q-57 -29 -180 -141q104 14 209 47l47 -2l-2 -246l-45 -8q-86 51 -211 72q88 -92 184 -141l20 -43l-202 -138l-31 39q-25 111 -74 224 q-45 -98 -74 -224l-30 -39l-203 138l21 43q109 59 184 141q-119 -18 -213 -72l-43 8z" />
<glyph unicode="+" horiz-adv-x="1327" d="M86 543l2 180l459 -2l2 436l213 -2v-434h479l-2 -178h-477v-451h-215v451h-461z" />
<glyph unicode="," horiz-adv-x="618" d="M66 -317q63 100 89.5 173.5t26.5 155.5t-43 152l11 29q102 39 223 38q14 0 26 -2q31 -30 31 -32q25 -49 25 -122t-18.5 -129.5t-63.5 -119.5q-53 -80 -156 -195z" />
<glyph unicode="-" horiz-adv-x="741" d="M2 461l78 205h29q82 -18 178 -19l168 2q45 0 140 4t144 4l-77 -202h-29q-139 18 -357 18z" />
<glyph unicode="." horiz-adv-x="698" d="M188 193.5v35.5l21 19q131 43 260 43h23l24 -15q20 -20 28.5 -81.5t8.5 -95t-4 -58.5l-21 -18q-92 -27 -274 -43l-25 12q-18 31 -29.5 102.5t-11.5 99z" />
<glyph unicode="/" horiz-adv-x="765" d="M-94 -201q66 119 249 553t253 617l178 487l245 47v-45q-84 -158 -267 -610.5t-249.5 -627.5t-140.5 -396l-268 -70v45z" />
<glyph unicode="0" horiz-adv-x="1519" d="M143 728q0 339 180.5 536.5t470 197.5t436 -200.5t146.5 -525t-166 -542t-430 -217.5q-307 0 -472 206t-165 545zM438 797.5q0 -111.5 10.5 -198.5t36 -172t66.5 -144q92 -133 258 -133q35 0 87 16t77 45q51 51 79.5 191.5t28.5 278.5t-15 240.5t-52 188.5 q-76 178 -275 178q-57 0 -113.5 -16.5t-80.5 -38.5q-45 -59 -76 -191.5t-31 -244z" />
<glyph unicode="1" horiz-adv-x="866" d="M41 1296q227 39 375 138h207l-11 -242v-741q0 -283 33 -406v-45h-340v45q33 123 33 406v585q0 139 -6 174q-121 -25 -269 -30z" />
<glyph unicode="2" horiz-adv-x="1208" d="M80 117q117 115 189.5 188.5t174 192t160 210t102.5 201t44 203.5q0 193 -168 193q-125 0 -375 -195q-100 109 -115 244q281 104 499 104t335.5 -89t117.5 -243q0 -215 -221 -489q-111 -135 -202 -231.5t-228 -231.5q129 0 178 2q369 12 498 113l55 -39l-96 -250h-899z " />
<glyph unicode="3" horiz-adv-x="1153" d="M37 92v12q0 102 84 191q231 -162 391 -162h10q106 0 164 33q90 84 90 270q0 141 -62.5 199.5t-203.5 58.5t-199 -8h-41l-47 156h223q102 0 168 78.5t66 181.5q0 211 -154 211q-137 0 -336 -156q-80 109 -96 234q238 68 453 67q408 0 407 -307q0 -123 -62.5 -212 t-148.5 -132q317 -68 318 -361q0 -202 -146.5 -334t-403.5 -132t-474 112z" />
<glyph unicode="4" horiz-adv-x="1294" d="M33 494q236 397 612 938l318 30q-10 -219 -11 -901l234 12l-43 -190h-187q0 -184 25 -338v-45h-313v45q25 152 24 317v21q-449 0 -602 -2zM272 551q223 0 424 6q2 240 2 394.5v248.5q-291 -418 -426 -649z" />
<glyph unicode="5" horiz-adv-x="1230" d="M29 115q8 43 47 111.5t76 101.5q262 -188 462 -189q94 0 156 27q37 43 57.5 121.5t20.5 148.5q0 244 -348 266l-273 19l-51 55q35 260 113 654l725 10l51 -299h-39q-66 57 -187.5 91t-260.5 34h-107q-43 -131 -82 -385q229 -10 316.5 -21.5t171.5 -39t135 -70.5 q121 -98 121 -296t-157 -337.5t-413 -139.5t-534 138z" />
<glyph unicode="6" horiz-adv-x="1343" d="M143 575q0 428 320 672q111 82 261 140.5t282 74.5l26 -116q-276 -84 -411 -228q-98 -106 -148 -274q137 88 306 88t298 -90q68 -47 109 -136.5t41 -209.5q0 -227 -139.5 -371.5t-395.5 -144.5t-402.5 145t-146.5 450zM438 520q0 -203 58.5 -298t205.5 -95q109 0 154 29 q33 39 54.5 120.5t21.5 203.5t-59.5 197t-173 75t-257.5 -97q-4 -82 -4 -135z" />
<glyph unicode="7" horiz-adv-x="1032" d="M43 1442q287 -8 471 -8l526 2l7 -25q-41 -70 -295 -711q-168 -424 -215 -706h-371l-8 45q207 344 368.5 683t241.5 535q-147 6 -211 7q-291 0 -420 -119h-35z" />
<glyph unicode="8" horiz-adv-x="1302" d="M106 375q0 260 308 373q-115 72 -168 149.5t-53 187.5q0 180 128 276.5t337.5 96.5t339.5 -83t130 -261q0 -215 -241 -362q168 -96 238.5 -173t70.5 -200q0 -190 -153.5 -296t-389 -106t-391.5 103.5t-156 294.5zM401 399q0 -256 265 -256q104 0 163 25q72 49 72 174 q0 88 -69.5 153.5t-262.5 163.5q-168 -76 -168 -260zM461 1120q0 -80 56 -140t220 -142q123 90 123 264q0 223 -209 223q-76 0 -129 -25q-61 -53 -61 -180z" />
<glyph unicode="9" horiz-adv-x="1345" d="M119 924q0 240 141 386t394 146t400.5 -149.5t147.5 -462.5q0 -459 -334 -699q-180 -125 -522 -170l-35 117q119 20 230.5 73.5t191.5 138.5t127 237q-147 -68 -305 -68t-289 92q-68 49 -107.5 141.5t-39.5 217.5zM414 967q0 -309 235 -310q117 0 248 62q10 137 10 184 q0 209 -58 305.5t-206 96.5q-102 0 -151 -29q-78 -100 -78 -309z" />
<glyph unicode=":" horiz-adv-x="702" d="M188 870v23l19 16q117 37 217 37q10 0 33 -12q33 -29 32 -133q0 -27 -4 -49l-18 -17q-113 -31 -221 -37l-23 11q-35 61 -35 161zM225 152v22l19 16q117 37 217 37q10 0 33 -12q33 -29 32 -133q0 -27 -4 -49l-18 -17q-113 -31 -221 -36l-23 10q-35 61 -35 162z" />
<glyph unicode=";" horiz-adv-x="696" d="M106 -317q63 100 90 173.5t27 155.5t-43 152l10 29q102 39 224 38q14 0 26 -2q31 -30 31 -32q25 -49 25 -122t-18.5 -129.5t-63.5 -119.5q-53 -80 -156 -195zM119 860v23l18 16q117 37 217 37q10 0 33 -12q33 -29 33 -133q0 -27 -4 -50l-19 -16q-113 -31 -221 -37l-22 10 q-35 61 -35 162z" />
<glyph unicode="&#x3c;" horiz-adv-x="1097" d="M20 588v143l1057 498v-189l-815 -381l815 -380v-187z" />
<glyph unicode="=" horiz-adv-x="1095" d="M20 358l3 181l1052 -2l-2 -179h-1053zM20 670l3 180l1052 -2l-2 -178h-1053z" />
<glyph unicode="&#x3e;" horiz-adv-x="1093" d="M18 92v187l816 380l-816 381v189l1057 -498v-143z" />
<glyph unicode="?" horiz-adv-x="991" d="M92 1370v27q184 63 387 63t319.5 -86t116.5 -260q0 -113 -51 -213t-131 -170q-127 -109 -241 -166v-12q0 -39 24 -123v-37q-74 -14 -134 -14t-126 12v39q20 94 20 130v42l41 29q324 225 324 456q0 184 -172 185q-127 0 -303 -135q-74 106 -74 233zM256 152.5v31.5l18 17 q107 32 197 32q10 0 33 -12q33 -29 33 -145q0 -27 -5 -49l-18 -17q-78 -23 -201 -33l-22 11q-16 29 -25.5 85t-9.5 79.5z" />
<glyph unicode="@" horiz-adv-x="1785" d="M72 628.5q0 352.5 233.5 587t624.5 234.5t585.5 -181.5t194.5 -459.5q0 -240 -156.5 -404.5t-369.5 -164.5q-209 0 -209 221h-10q-100 -106 -194.5 -163.5t-162.5 -57.5q-172 0 -172 241q0 156 65.5 301.5t210 249t341.5 103.5q145 0 266 -39l-152 -512q-20 -70 -20 -117 q0 -88 72 -84q125 6 204.5 141t79.5 264.5t-42 216.5t-106.5 139t-150.5 87q-150 59 -308.5 59t-266.5 -37q-319 -182 -320 -581q0 -319 164 -472t424 -153q205 0 428 107l66 -97q-244 -168 -529 -168q-344 0 -567 193.5t-223 546zM682 503q0 -77 27 -77q43 0 213 160 q68 66 82 131l77 262q-37 14 -101.5 14t-127.5 -20q-96 -119 -143 -295q-27 -98 -27 -175z" />
<glyph unicode="A" d="M-55 0v45q106 74 264 545t207 623.5t57 220.5l315 30q0 -78 136 -446q252 -688 350 -846q47 -80 106 -127v-45h-434v45q0 86 -129 438q-78 2 -215 2t-221 -2q-68 -233 -80 -287.5t-12 -150.5v-45h-344zM420 633h354q-12 35 -37 117q-53 182 -147 426q-68 -195 -170 -543z " />
<glyph unicode="B" horiz-adv-x="1474" d="M221 0v47q41 100 41 287v747q0 201 -35 308v45q58 -4 162 -4l350 4q242 0 369 -65.5t127 -229.5q0 -111 -56.5 -191t-140.5 -121q100 -25 191 -100q109 -90 108 -257q0 -170 -84 -276q-84 -104 -214 -151t-326 -47q-319 8 -328 8zM553 731q0 -489 6 -588q82 -12 125 -12 q156 0 251 84t95 226q0 290 -405 290h-72zM553 856h139q262 0 262 225q0 123 -61.5 174.5t-173 51.5t-164.5 -7q-2 -29 -2 -444z" />
<glyph unicode="C" horiz-adv-x="1490" d="M100 706.5q0 333.5 241 542.5t597 209q240 0 463 -106q-27 -129 -117 -252q-141 104 -256 144t-210 40t-165 -10q-106 -74 -174.5 -201t-68.5 -305q0 -283 142 -438.5t355 -155.5q160 0 451 148l76 -111q-154 -100 -210.5 -131t-174 -68t-234.5 -37q-297 0 -506 199 t-209 532.5z" />
<glyph unicode="D" horiz-adv-x="1687" d="M221 2v45q35 131 35 406v528q0 276 -35 408v45q90 -4 160 -4l407 6q406 0 602.5 -165t196.5 -507q0 -211 -75.5 -379t-221.5 -264q-180 -121 -493 -121h-39l-377 2h-160zM547 686q0 -440 6 -508q133 -10 233 -10q256 0 355 57q137 143 137 506q0 301 -122 427t-406 126 q-8 0 -199 -2q-4 -98 -4 -477v-119z" />
<glyph unicode="E" horiz-adv-x="1298" d="M221 0v45q35 147 35 412v518q0 266 -35 414v45l953 6l-62 -180h-39q-100 28 -387 28q-84 0 -131 -4q-4 -94 -4 -461l526 11l-71 -170h-39q-78 16 -228.5 16t-187.5 -4v-109q0 -344 6 -411q47 -4 156.5 -4t263 18t225.5 47h39l-39 -217h-981z" />
<glyph unicode="F" horiz-adv-x="1157" d="M221 0v45q35 147 35 412v518q0 266 -35 414v45l901 6l-59 -201h-39q-115 33 -269.5 33t-201.5 -4q-6 -59 -6 -453l471 10l-76 -192h-39q-98 20 -208.5 20t-147.5 -4v-190q0 -291 33 -414v-45h-359z" />
<glyph unicode="G" horiz-adv-x="1566" d="M100 689.5q0 316.5 221.5 542.5t550.5 226q293 0 543 -180q-88 -96 -258 -193q-63 86 -174 145.5t-224.5 59.5t-158.5 -12q-190 -164 -190 -526q0 -297 108.5 -447.5t355.5 -150.5q125 0 224 32q28 145 28 336v13h-272l104 163q197 -14 334.5 -14t227.5 4l-72 -147h-47 q0 -270 12 -371q-119 -74 -285.5 -134.5t-324.5 -60.5q-297 0 -500 199t-203 515.5z" />
<glyph unicode="H" horiz-adv-x="1699" d="M221 0v45q31 117 31 412v520q0 295 -31 412v45h350v-45q-10 -47 -19 -190.5t-9 -217.5v-156h614v156q0 76 -9 218t-22 190v45h353v-45q-31 -117 -31 -412v-520q0 -295 31 -412v-45h-353v45q12 47 21.5 189.5t9.5 216.5v194q-229 4 -364.5 4t-249.5 -2v-196 q0 -72 9 -215.5t19 -190.5v-45h-350z" />
<glyph unicode="I" horiz-adv-x="798" d="M221 0v45q33 123 33 426v510q0 285 -33 408v45h357v-45q-14 -47 -23.5 -197.5t-9.5 -230.5v-490q0 -303 33 -426v-45h-357z" />
<glyph unicode="J" horiz-adv-x="831" d="M-27 -410q47 33 115 88q123 104 161 252t38 486v565q0 301 -37 408v45h360v-45q-14 -47 -23 -198t-9 -230v-631q0 -201 -29 -288t-44.5 -133t-55 -96.5t-58 -75t-74 -69.5t-71.5 -57l-164 -119z" />
<glyph unicode="K" horiz-adv-x="1382" d="M221 0v45q31 117 31 412v520q0 295 -31 412v45h350v-45q-10 -47 -19 -190.5t-9 -217.5v-145l295 352q133 160 133 246h340v-45q-113 -16 -271 -203l-325 -398l278 -339q293 -358 469 -404v-45h-397q-119 133 -522 647v-196q0 -72 9 -215.5t19 -190.5v-45h-350z" />
<glyph unicode="L" horiz-adv-x="1196" d="M221 0v45q33 141 33 406v530q0 285 -33 408v45h357v-45q-14 -47 -23.5 -192.5t-9.5 -221.5v-547q0 -150 12 -272q39 -4 162 -4q324 0 479 65h39l-37 -217h-979z" />
<glyph unicode="M" horiz-adv-x="1921" d="M154 0v45q77 459 77 1065v16q0 164 -8 265v45l338 26q20 -98 87 -305t321 -858q168 465 256 753.5t104 379.5l350 36v-45q-2 -43 -2 -173t23.5 -475t79.5 -730v-45h-338v45q6 121 6 272q0 381 -37 717q-252 -705 -346 -1030l-248 -24q0 96 -366 1064q-23 -360 -23 -598.5 t6 -400.5v-45h-280z" />
<glyph unicode="N" horiz-adv-x="1605" d="M147 0v45q33 123 33 465v416q0 305 -26 460v46l323 22l721 -1012v539q0 104 -14.5 230t-32.5 178v45h289v-45q-12 -51 -22.5 -200t-10.5 -265v-488q0 -119 12.5 -260t20.5 -172l-269 -27l-782 1096v-622q0 -258 39 -406v-45h-281z" />
<glyph unicode="O" horiz-adv-x="1687" d="M100 705.5q0 316.5 219.5 536.5t559.5 220t524 -204.5t184 -503.5q0 -338 -220 -558.5t-547.5 -220.5t-523.5 207t-196 523.5zM410 767q0 -144 25.5 -247.5t79.5 -190.5t150.5 -137.5t232.5 -50.5t239 58q141 134 141 499q0 170 -40 297t-146.5 212t-274.5 85 q-76 0 -153.5 -17.5t-112.5 -37.5q-61 -63 -101 -194.5t-40 -275.5z" />
<glyph unicode="P" horiz-adv-x="1398" d="M221 0v45q41 117 41 287v735q0 205 -35 322v45q139 -4 162 -4l342 4q289 0 439.5 -90.5t150.5 -312.5t-176 -348t-447 -126q-74 0 -145 14v-268q0 -152 41 -258v-45h-373zM553 696q66 -18 143 -18q156 0 237 88t81 243.5t-67.5 223t-216 67.5t-173.5 -2q-4 -61 -4 -340 v-262z" />
<glyph unicode="Q" horiz-adv-x="1693" d="M100 705.5q0 318.5 221.5 537.5t557 219t521 -200.5t185.5 -513.5q0 -377 -280 -609q170 -147 329 -223l2 -16l-297 -97q-123 141 -215 232q-137 -59 -307 -60q-325 0 -521 206t-196 524.5zM410 768q0 -137 22.5 -239.5t74.5 -194.5t151.5 -145.5t236.5 -53.5 q59 0 109 12q-53 49 -216 187v12l207 78q88 -100 181 -176q102 172 102 434q-1 438 -234 561q-92 49 -238.5 49t-256.5 -55q-61 -68 -100 -200t-39 -269z" />
<glyph unicode="R" horiz-adv-x="1447" d="M221 0v45q41 106 41 287v735q0 205 -35 322v45q58 -4 201 -4l293 4q264 0 408.5 -80t144.5 -269.5t-117 -304t-311 -133.5l233 -272q150 -174 231 -239.5t146 -86.5v-49h-358q-29 43 -142 186l-368 449q-25 0 -35 2v-285q0 -201 33 -307v-45h-365zM553 766q47 -6 117 -6 q164 0 232.5 72.5t68.5 216t-62.5 197.5t-194.5 54t-157 -2q-4 -61 -4 -532z" />
<glyph unicode="S" horiz-adv-x="1275" d="M111 119q6 147 112 276q98 -109 221 -178.5t224.5 -69.5t179.5 46q39 51 39 159q0 82 -47 131q-29 27 -48.5 44.5t-68.5 41.5q-49 27 -199.5 93.5t-210.5 105.5q-170 115 -170 308.5t146.5 287.5t363.5 94t457 -102q-25 -141 -104 -275q-104 96 -221 156.5t-211.5 60.5 t-149.5 -30q-33 -39 -33 -121t53.5 -129t117 -77t113.5 -52.5t64.5 -29.5t68.5 -31.5t68.5 -32t63.5 -36t67.5 -47t53.5 -54t49 -68.5q39 -92 39 -187q0 -211 -150.5 -319.5t-411.5 -108.5t-476 144z" />
<glyph unicode="T" horiz-adv-x="1134" d="M-31 1440q399 -6 598 -6t598 6q-10 -117 -10 -209h-39q-231 53 -397 59q-8 -102 -8 -307v-537q0 -279 32 -401v-45h-352v45q29 123 29 395v535q0 211 -8 315q-154 -6 -394 -59h-38q0 92 -11 209z" />
<glyph unicode="U" horiz-adv-x="1574" d="M150 1389v45h352v-45q-29 -184 -29 -478v-252q0 -207 25.5 -295t62.5 -126q84 -92 257 -92q2 0 3 -1q171 0 254 54q53 80 67.5 219t14.5 472t-33 499v45h293v-43q-14 -47 -23.5 -179t-9.5 -206v-367q0 -373 -136 -517.5t-457.5 -144.5t-465 140.5t-143.5 449.5v406 q0 305 -32 416z" />
<glyph unicode="V" horiz-adv-x="1423" d="M-10 1389v45h418v-45q0 -106 88 -371l268 -766l242 741q72 215 79 396v45h353v-45q-113 -90 -293 -578q-244 -705 -277 -809l-295 -31q-2 106 -366 1024q-133 336 -217 394z" />
<glyph unicode="W" horiz-adv-x="2091" d="M-8 1389v45h377v-58q0 -139 63 -344l211 -751q258 856 266 1153h314q12 -100 59 -296t248 -857q12 43 58 197.5t71 242.5q76 279 92 426.5t16 241.5v45h340v-45q-96 -135 -233 -574.5t-238 -814.5l-311 -29q-29 203 -227 871l-60 200q-41 -123 -72.5 -227t-220.5 -815 l-313 -29q-6 172 -278 1026q-63 199 -96 277t-66 115z" />
<glyph unicode="X" horiz-adv-x="1372" d="M-29 0v45q125 68 267 266q215 305 290 418l-168 256q-229 352 -348 404v45l463 -2v-46q0 -70 45 -159q51 -102 185 -299q250 354 249 506h361v-45q-63 -33 -117.5 -90.5t-179.5 -226.5t-201 -286q350 -514 431 -611t143 -130v-45h-459v45q0 33 -23.5 80t-39 76.5t-28 50 t-33 54.5t-30.5 52l-133 224q-303 -428 -303 -584z" />
<glyph unicode="Y" horiz-adv-x="1150" d="M-31 1389v45h379v-45q0 -82 76 -236t199 -375q172 348 210.5 451.5t38.5 159.5v45h297v-45q-74 -51 -180 -250q-59 -111 -262 -541v-147q0 -74 9 -216.5t22 -189.5v-45h-332v45q31 117 31 352v205l-201 373q-80 145 -164 270t-123 144z" />
<glyph unicode="Z" horiz-adv-x="1198" d="M-8 119l858 1163q-49 2 -215 2q-319 0 -531 -78h-38l43 224l993 14l82 -135l-850 -1153q59 -4 238.5 -4t351.5 18t245 47h39l-47 -217h-1098z" />
<glyph unicode="[" horiz-adv-x="993" d="M195 -356v1906l645 6l-90 -167h-39q-92 35 -240 34h-31v-1493q0 -104 4 -163h23q139 0 244 38h39l90 -170z" />
<glyph unicode="\" horiz-adv-x="567" d="M-147 1264l143 233l33 -33q39 -129 218 -564t261 -617l221 -471l-143 -199l-31 31q-53 170 -246.5 622.5t-265.5 609t-190 388.5z" />
<glyph unicode="]" horiz-adv-x="993" d="M195 -365l90 170h39q104 -38 243 -38h23q4 59 4 163v1493h-31q-147 0 -239 -34h-39l-90 167l645 -6v-1906z" />
<glyph unicode="^" horiz-adv-x="1298" d="M242 776l323 621h180l312 -621h-209l-197 408l-207 -408h-202z" />
<glyph unicode="_" horiz-adv-x="1280" d="M49 -90h1182v-186h-1182v186z" />
<glyph unicode="`" horiz-adv-x="1071" d="M270 1346q76 109 205 153q123 -211 326 -385l-76 -80q-231 115 -455 312z" />
<glyph unicode="a" horiz-adv-x="1130" d="M92 266q0 285 416 285l182 -8v125q0 106 -53 171.5t-164 65.5q-25 0 -63.5 -25.5t-65.5 -52.5q-84 -80 -135 -131q-102 121 -111 244q262 82 442.5 82t301.5 -84t121 -264v-322q0 -92 30.5 -176t75.5 -113l4 -45l-293 -61q-33 61 -61 172q-53 -57 -86 -85t-91 -54.5 t-124 -26.5q-129 0 -227.5 78t-98.5 225zM362 301q0 -160 140 -160q115 0 190 95v174q-73 27 -160 27q-2 -1 -3 -1q-89 0 -136 -33q-31 -39 -31 -102z" />
<glyph unicode="b" horiz-adv-x="1282" d="M100 1411v45l351 72l16 -45q-10 -55 -10 -168v-400q137 106 282 107q211 0 332 -138.5t121 -338.5q0 -248 -180.5 -416t-427.5 -168q-160 0 -414 96v45q23 57 23 271v794q0 156 -93 244zM457 166q145 -51 237 -51t119 20q31 39 57.5 157t26.5 232q0 346 -168 346 q-109 0 -272 -96v-608z" />
<glyph unicode="c" horiz-adv-x="1110" d="M90 480.5q0 232.5 170 387t389 154.5t377 -104q-70 -117 -131 -183q-166 127 -317 127q-39 0 -70 -6q-53 -49 -88 -143t-35 -209q0 -358 209 -359q147 0 387 125l53 -84q-82 -76 -216 -149.5t-228 -73.5q-231 0 -365.5 142.5t-134.5 375z" />
<glyph unicode="d" horiz-adv-x="1273" d="M100 484.5q0 224.5 159 381t403 156.5q90 0 174 -14v184q0 135 -93 219v45l342 72l21 -45q-6 -39 -6 -156v-956q0 -94 27.5 -176t72.5 -113l4 -45l-307 -80q-23 63 -41 139q-135 -135 -264 -135q-242 0 -367 149.5t-125 374zM395 512q0 -156 55.5 -271.5t160 -115.5 t225.5 96v574q-119 77 -261 77h-4q-61 0 -96 -26q-80 -98 -80 -334z" />
<glyph unicode="e" horiz-adv-x="1105" d="M90 453.5q0 226.5 149.5 397.5t387.5 171q201 0 299 -129t98 -356l-78 -80h-561q2 -147 79 -227t184.5 -80t324.5 112l51 -78q-39 -37 -88 -75.5t-165 -93t-220 -54.5q-178 0 -319.5 133t-141.5 359.5zM387 575l358 21q1 295 -165 295q-76 0 -121 -31q-33 -51 -51.5 -135 t-20.5 -150z" />
<glyph unicode="f" horiz-adv-x="845" d="M82 831l61 173l119 -7v111q0 178 90 293t280.5 115t401.5 -89q-70 -158 -123 -225q-168 143 -282 144q-45 0 -72 -17q-31 -47 -31 -250v-84q90 4 320 19l-74 -201q-133 18 -246 25v-412q0 -96 18.5 -213t41.5 -168v-45h-359v45q35 102 35 334v463q-121 -4 -180 -11z" />
<glyph unicode="g" horiz-adv-x="1218" d="M59 -209q0 166 207 248q-119 53 -119 125q0 41 21 61q63 63 127 86q8 4 28.5 14.5t26.5 12.5q-215 102 -215 319q0 172 134 268.5t343 96.5q147 0 258 -55q135 0 281 20l68 -143h-207q53 -90 53 -187q0 -168 -126 -269t-325 -101q-76 0 -125 12q-51 -43 -51 -64.5 t19.5 -34t70.5 -24.5q53 -12 127 -26q324 -59 415 -107.5t91 -164.5t-88 -200q-163 -159 -500 -159h-4q-172 0 -327 51q-82 29 -132.5 86t-50.5 135zM319 -159.5q0 -104.5 91.5 -155t191.5 -50.5t171 38t71 122q0 47 -17.5 62.5t-23.5 21.5t-22.5 13.5t-26 10.5t-31 9 t-32.5 9t-37.5 9.5t-82.5 20.5q-27 8 -176 37q-76 -43 -76 -147.5zM407 681q0 -107 31 -165q53 -113 178 -113q88 0 121 29q55 68 56 236q0 235 -201 235h-2q-76 0 -127 -29q-56 -81 -56 -193z" />
<glyph unicode="h" horiz-adv-x="1325" d="M102 1411v45l338 72l25 -45q-6 -57 -6 -402v-225q106 84 184 125t168 41q164 0 252 -95.5t88 -275.5v-260q0 -203 61 -346v-45h-360v45q35 96 35 277v256q0 121 -32 176t-135.5 55t-260.5 -86v-338q0 -231 51 -340v-45h-350v45q35 113 35 297v805q0 176 -93 264z" />
<glyph unicode="i" horiz-adv-x="643" d="M96 915v46l375 69l25 -41q-13 -47 -13 -184v-438q0 -195 60 -322v-45h-359v45q35 104 35 277v303q0 113 -34.5 187.5t-88.5 102.5zM162 1395.5v31.5l18 17q111 37 219 37h23l22 -13q18 -16 25.5 -69t7.5 -82t-4 -51l-18 -17q-90 -27 -236 -37l-22 11q-16 27 -25.5 88 t-9.5 84.5z" />
<glyph unicode="j" horiz-adv-x="567" d="M-43 -416q59 49 84 80q68 76 97.5 213t29.5 434v307q0 113 -42 193t-95 104v46l389 69l24 -41q-12 -56 -12 -203v-553q0 -322 -117 -483q-45 -59 -71 -86q-29 -29 -189 -176zM113 1395.5v31.5l18 17q111 37 219 37h23l22 -13q18 -16 25.5 -69t7.5 -82t-4 -51l-18 -17 q-90 -27 -236 -37l-23 11q-16 27 -25 88t-9 84.5z" />
<glyph unicode="k" horiz-adv-x="1193" d="M102 1411v45l338 72l25 -45q-6 -57 -6 -400v-397l307 234q47 37 47 75h322v-45q-78 -10 -215 -121l-289 -231l368 -395q33 -35 106 -91.5t120 -66.5v-45h-389q0 39 -41 82q-55 68 -336 377v-92q0 -223 35 -322v-45h-332v45q33 100 33 297v805q0 176 -93 264z" />
<glyph unicode="l" horiz-adv-x="608" d="M102 1411v45l338 72l25 -45q-8 -98 -8 -233.5t2 -166.5v-741q0 -190 33 -297l2 -45h-332v45q33 106 33 297v805q0 176 -93 264z" />
<glyph unicode="m" horiz-adv-x="1902" d="M106 915v46l332 63l21 -39q16 -41 24 -131q96 86 169 127t161 41q195 0 258 -172q68 55 110 86t105.5 58.5t120.5 27.5q154 0 238 -95.5t84 -275.5v-280q0 -182 61 -326v-45h-360v45q34 93 34 253v9v271q0 117 -28.5 174t-119.5 57t-218 -72q4 -53 4 -86v-280 q0 -182 61 -326v-45h-340v45q35 96 35 262v271q0 117 -26.5 174t-111.5 57t-226 -86v-356q0 -195 59 -322v-45h-358v45q34 101 34 267v10v303q0 229 -123 290z" />
<glyph unicode="n" d="M100 915v46l332 63l23 -39q16 -49 22 -131q104 84 181 126t163 42q154 0 238 -95.5t84 -275.5v-260q0 -203 61 -346v-45h-360v45q35 96 35 277v256q0 119 -29 175t-123 56t-240 -86v-336q0 -215 60 -342v-45h-359v45q35 104 35 291v274q0 244 -123 305z" />
<glyph unicode="o" horiz-adv-x="1245" d="M90 467q0 227 158 390t402.5 163t374.5 -136t130 -365.5t-157.5 -393.5t-396.5 -164t-375 139.5t-136 366.5zM385 520q0 -428 272 -428q82 0 134 43q35 47 52 144.5t17 187.5q0 199 -57.5 310.5t-200.5 111.5q-92 0 -143 -45q-33 -47 -53.5 -141.5t-20.5 -182.5z" />
<glyph unicode="p" horiz-adv-x="1296" d="M100 944l334 80l25 -39q-4 -31 -4 -100q137 137 286 137q207 0 335 -137t128 -334q0 -244 -172 -416t-391 -172q-88 0 -172 19v-56q0 -244 82 -336v-45l-354 -43q8 107 8 314v807q0 90 -27.5 170.5t-73.5 105.5zM469 184q133 -63 252 -63q49 0 90 10q49 61 73.5 175 t24.5 206q0 324 -170 324q-123 0 -270 -93v-559z" />
<glyph unicode="q" horiz-adv-x="1200" d="M90 485.5q0 223.5 153.5 380t391.5 156.5q131 0 276 -55l84 55h11.5t44 -7t47.5 -14q-12 -94 -13 -286v-899q0 -203 9 -310l-355 23v45q82 106 82 385v123q-123 -119 -270 -119q-225 0 -343 149.5t-118 373zM385 526.5q0 -217.5 94 -321.5q53 -59 141 -59q1 -1 2 -1 q88 0 199 82v600q-102 47 -235 47q-39 0 -74 -9t-43 -17q-84 -104 -84 -321.5z" />
<glyph unicode="r" horiz-adv-x="843" d="M100 911v45l289 68l21 -29q12 -18 36 -84q133 111 279 111q72 0 133 -29v-18q0 -129 -51 -258q-109 76 -234 76q-39 0 -94 -13v-403q0 -197 60 -332v-45h-359v45q35 111 35 274v306q0 90 -34 175t-81 111z" />
<glyph unicode="s" horiz-adv-x="1032" d="M100 94q8 123 93 228q202 -189 372 -189q117 0 117 113q0 104 -199 157q-82 23 -163.5 51.5t-139 92t-57.5 162.5q0 141 127 220t309 79t381 -88q-10 -90 -111 -218q-82 82 -170 125t-153.5 43t-99.5 -14q-31 -27 -31 -87t58.5 -93t142 -52.5t167.5 -48t142.5 -97 t58.5 -179.5q0 -160 -124 -241t-328.5 -81t-391.5 117z" />
<glyph unicode="t" horiz-adv-x="866" d="M37 821l74 185q37 -6 131 -11q-4 94 -13 174l275 70v-242q82 2 321 27l-80 -211q-104 18 -241 23v-598q0 -74 39 -74q55 0 207 63l61 -92q-82 -53 -194.5 -105.5t-196.5 -52.5q-180 0 -180 207v652q-31 0 -203 -15z" />
<glyph unicode="u" horiz-adv-x="1310" d="M113 938v45h356v-49q-31 -106 -31 -277v-272q0 -102 35 -158.5t98 -56.5q109 0 258 104v322q0 207 -59 342v45h354v-49q-30 -103 -30 -266v-11v-272q0 -92 29.5 -180t70.5 -123l6 -45l-321 -82q-43 74 -50 166q-176 -148 -301 -148q-209 0 -281.5 89.5t-72.5 289.5v244 q0 203 -61 342z" />
<glyph unicode="v" horiz-adv-x="1015" d="M-12 940v45l352 27v-25q0 -49 84 -307l125 -361l139 441q37 111 37 211v24h293v-45q-59 -39 -117 -200l-233 -658l-29 -106l-250 -9l-37 119l-243 662q-23 61 -60 116.5t-61 65.5z" />
<glyph unicode="w" horiz-adv-x="1632" d="M-12 940v45l342 25v-31q0 -47 88 -305l123 -348q66 184 106 290q39 100 72 220q-43 92 -64 108v45l312 15v-31q0 -57 90 -314l121 -333q131 410 152.5 484.5t21.5 164.5v20h278l-2 -47q-55 -39 -106 -200l-213 -656l-27 -110l-238 -5l-36 119l-179 457l-165 -463 l-23 -108l-231 -5l-37 119l-269 662q-29 70 -62.5 121t-53.5 61z" />
<glyph unicode="x" horiz-adv-x="1085" d="M-2 950v45h383v-28q0 -53 98 -179l72 -96l70 109q70 111 69 168v28l352 -2v-45q-115 -37 -217 -198l-147 -232l176 -231q70 -92 139.5 -162t98.5 -82v-45h-416v31q0 82 -78 184l-84 113l-90 -138q-68 -102 -70 -159v-31h-354v45q45 14 108.5 67.5t108.5 123.5l170 264 l-154 209q-61 84 -132.5 158.5t-102.5 82.5z" />
<glyph unicode="y" horiz-adv-x="1030" d="M-14 942v45l354 23v-29q0 -98 72 -289l159 -428q172 530 172 629v4q0 31 -10 53v45h297v-45q-27 -29 -83 -180.5t-243.5 -685t-193.5 -551.5v-37l-332 -18l-6 45q57 70 94 121q100 141 176 338l-292 673q-100 233 -164 287z" />
<glyph unicode="z" horiz-adv-x="960" d="M31 121l571 706q-350 0 -467 -51l-45 27l51 198l703 -6l65 -123l-559 -704q352 0 516 43l45 -12l-71 -199h-750z" />
<glyph unicode="{" horiz-adv-x="913" d="M109 537v32q45 29 74.5 53.5t59 86t29.5 141.5v233q0 268 76 359q31 37 93.5 63.5t157.5 26.5t241 -39l-17 -94q-115 20 -186.5 20t-89 -72.5t-17.5 -220.5v-237q0 -139 -69 -221q-49 -55 -129 -109v-12q198 -119 198 -334v-141q0 -233 43 -281q23 -23 80.5 -22.5 t171.5 20.5l17 -94q-160 -39 -247 -39t-147.5 23.5t-95.5 60.5t-53 100q-29 96 -29 266v168q0 162 -108 234q-20 12 -53 29z" />
<glyph unicode="|" horiz-adv-x="561" d="M150 1413v10l262 90q-19 -243 -19 -325v-1481l-241 -94z" />
<glyph unicode="}" horiz-adv-x="913" d="M72 -305l16 94q115 -20 187.5 -20t90 75.5t17.5 227.5v141q0 215 199 334v12q-147 98 -181 205q-18 55 -18 125v237q0 147 -17.5 220t-89 73t-186.5 -20l-16 94q145 39 240.5 39t158 -26.5t94 -64.5t47.5 -106q27 -96 27 -252v-233q0 -80 29.5 -141.5t59.5 -86t75 -53.5 v-32q-117 -59 -146 -152q-16 -47 -16 -111v-168q0 -281 -82 -366q-80 -84 -242 -84q-88 0 -247 39z" />
<glyph unicode="~" horiz-adv-x="1376" d="M164 618q180 98 307 99q66 0 215.5 -55.5t232 -55.5t205.5 84l88 -176q-164 -92 -311 -92q-72 0 -213 54t-225 54t-207 -90z" />
<glyph unicode="&#xa1;" horiz-adv-x="626" d="M129 -391q74 47 86 182q18 362 18 827l224 -40q0 -18 18.5 -478t32.5 -542l-27 -39l-352 55v35zM223 830.5q0 25.5 10.5 82t26.5 84.5l23 11q119 -8 219 -37l18 -17q4 -23 4 -51.5t-7 -81.5t-25 -69l-23 -13q-113 0 -225 37l-19 17q-2 12 -2 37.5z" />
<glyph unicode="&#xa2;" horiz-adv-x="1101" d="M82 471q0 221 143.5 369.5t349.5 175.5q0 96 -8 180l156 53l10 -28q-12 -98 -16 -203q176 -20 301 -100q-70 -117 -131 -183q-88 66 -170 99v-672q106 29 256 108l53 -84q-137 -129 -309 -192q0 -158 8 -230l-164 -32l-10 28q16 125 20 203q-227 2 -358 144.5t-131 363.5 zM377 504q0 -350 198 -359v717h-6q-39 0 -69 -6q-53 -49 -88 -143t-35 -209z" />
<glyph unicode="&#xa3;" horiz-adv-x="1142" d="M29 -25l116 146q144 29 213.5 112.5t69.5 173t-78 279.5q-184 -6 -317 -16l73 170h29q82 -16 146 -17q-72 135 -72 236q0 154 138 270.5t362.5 116.5t375.5 -92q-63 -94 -122 -156q-150 102 -277 102q-39 0 -74 -4q-49 -29 -78.5 -96t-29.5 -141t61 -236q55 0 160.5 4 t151.5 4l-72 -163h-29q-74 12 -149 12q57 -137 57 -215q0 -113 -119 -252q-18 -20 -29.5 -30.5t-37.5 -37.5q387 14 557 121h45l-68 -291h-1003z" />
<glyph unicode="&#xa4;" horiz-adv-x="1384" d="M154 313l163 152q-82 113 -81.5 246t86.5 252l-168 157l170 64l114 -125q106 68 233.5 67.5t233.5 -67.5l92 104l23 23l170 -64l-172 -157q86 -113 86 -255.5t-88 -244.5l172 -158l-166 -63l-111 127q-113 -72 -236.5 -72t-236.5 72l-114 -127zM442 719q0 -98 63.5 -166 t163 -68t165 68t65.5 166t-65.5 166.5t-165 68.5t-163 -68.5t-63.5 -166.5z" />
<glyph unicode="&#xa5;" horiz-adv-x="1220" d="M4 1391v43h379v-45q0 -84 81 -251t193 -374q172 360 211 462.5t39 162.5v45h297v-41q-76 -53 -180 -238q-39 -66 -135 -267.5t-117 -242.5h164q92 0 285 14l-64 -167h-395v-5q0 -78 9 -233.5t22 -204.5v-49h-332v49q31 123 31 377v66h-185q-90 0 -284 -15l71 168h385 l-188 354q-80 139 -165 257t-122 135z" />
<glyph unicode="&#xa6;" horiz-adv-x="561" d="M150 481h243v-774l-241 -94zM150 727v696l262 90q-18 -244 -19 -325v-461h-243z" />
<glyph unicode="&#xa7;" horiz-adv-x="1273" d="M96 940q0 172 88 297q166 231 482 231q193 0 381 -77q-2 -51 -32 -126t-67 -128q-162 166 -309 166q-53 0 -98 -15q4 -170 96 -293q47 -61 86 -101t109.5 -100.5t99.5 -87t85 -88t81 -110.5q68 -135 67 -283q0 -272 -165.5 -438t-401.5 -166q-104 0 -228 38t-218 105 q6 137 100 254q207 -219 389 -219q20 0 61 4q0 174 -69 326q-25 53 -85.5 124t-86 96.5t-106.5 100t-128 129t-89 151.5t-42 210zM297 986q0 -134 57.5 -227t150.5 -183.5t121.5 -120t88 -102t86.5 -128.5q74 -150 73 -315q31 39 53.5 115.5t22.5 156.5q0 166 -64.5 273.5 t-189.5 216.5q-70 61 -92 80.5t-77.5 79t-75.5 102.5q-70 137 -76 258q-78 -72 -78 -206z" />
<glyph unicode="&#xa8;" horiz-adv-x="1114" d="M168 1343l31 23q102 27 192 31h45l25 -13q14 -16 21 -69t7 -82t-2 -47l-24 -23q-94 -25 -187 -30h-32l-31 10q-45 80 -45 200zM606 1366l31 23q102 27 192 30h45l25 -12q14 -16 21.5 -69.5t7.5 -82t-2 -47.5l-25 -22q-94 -25 -186 -31h-33l-31 10q-45 80 -45 201z" />
<glyph unicode="&#xa9;" horiz-adv-x="1605" d="M63 721q0 303 218.5 519t523.5 216t521 -214t216 -519t-214 -521t-521 -216t-525.5 216t-218.5 519zM229 721q0 -244 169 -418t405.5 -174t407.5 173t171 417t-167.5 419t-406.5 175t-409 -174t-170 -418zM424 727q0 178 132 298t308 120t287 -86q-49 -88 -109 -144 q-145 88 -221 89q-31 0 -65 -7q-45 -27 -71 -98.5t-26 -168.5t38 -170t113 -73t164 31t122 51l63 -92q-2 0 -21.5 -14t-84.5 -51q-147 -84 -248 -84q-176 0 -278.5 110.5t-102.5 288.5z" />
<glyph unicode="&#xaa;" horiz-adv-x="761" d="M59 985q0 201 269 201l112 -4v71q0 111 -104 111q-49 0 -176 -117q-27 31 -49.5 80t-24.5 86q154 49 273.5 49t192.5 -54t73 -155v-211q0 -127 59 -174l6 -28l-198 -37q-29 66 -33 86q-66 -82 -171.5 -82t-167 45t-61.5 133zM244 997q0 -90 84 -90q25 0 58.5 16.5 t51.5 39.5v114q-45 18 -100 18.5t-80 -22.5q-14 -35 -14 -76z" />
<glyph unicode="&#xab;" horiz-adv-x="1294" d="M129 565q98 55 131 84l332 287l96 -96l-272 -293l286 -305l-108 -111q-84 88 -111 109l-262 219l-78 59zM594 565q98 55 131 84l332 287l96 -96l-272 -293l286 -305l-108 -111q-84 88 -111 109l-262 219l-78 59z" />
<glyph unicode="&#xac;" horiz-adv-x="1165" d="M8 692v182h1149v-626h-186v444h-963z" />
<glyph unicode="&#xad;" horiz-adv-x="741" d="M2 461l78 205h29q82 -18 178 -19l168 2q45 0 140 4t144 4l-77 -202h-29q-139 18 -357 18z" />
<glyph unicode="&#xae;" horiz-adv-x="1605" d="M63 721q0 303 218.5 519t523.5 216t521 -214t216 -519t-214 -521t-521 -216t-525.5 216t-218.5 519zM229 721q0 -244 169 -418t405.5 -174t407.5 173t171 417t-167.5 419t-406.5 175t-409 -174t-170 -418zM453 360v25q23 57 22 160v389q0 119 -18 170v24l108 -2l264 2 q309 0 310 -194q0 -94 -72 -153.5t-182 -69.5l133 -160q121 -143 188 -166v-25h-266q-49 68 -238 349l-16 2v-156q0 -123 14 -170v-25h-247zM686 786q27 -2 91.5 -2t95 32t30.5 100.5t-29.5 96t-96 27.5t-89.5 -4q-2 -23 -2 -250z" />
<glyph unicode="&#xaf;" horiz-adv-x="1024" d="M231 1223v157h562v-157h-562z" />
<glyph unicode="&#xb0;" horiz-adv-x="751" d="M80 1147q0 131 83 214t213 83t213 -80t83 -210t-81 -216t-211 -86t-215 82t-85 213zM221 1167q0 -170 166 -170q88 0 129 41q16 43 16 90q0 170 -170 170q-82 0 -126 -41q-14 -43 -15 -90z" />
<glyph unicode="&#xb1;" horiz-adv-x="1228" d="M86 0l2 180l1055 -2l-2 -178h-1055zM86 756l2 180l428 -2l2 424l180 -2v-422h445l-2 -178h-443v-422h-182v422h-430z" />
<glyph unicode="&#xb2;" horiz-adv-x="815" d="M68 657q98 92 151 144.5t127 136.5q141 164 141 303q0 94 -67 94q-80 0 -250 -147q-86 84 -90 170q184 86 333.5 86t221.5 -54.5t72 -148.5q0 -197 -385 -551h88q225 12 303 70l32 -29l-55 -174h-592z" />
<glyph unicode="&#xb3;" horiz-adv-x="745" d="M47 633q0 84 62 133q49 -43 110.5 -68.5t111.5 -25.5t85 16q57 45 57 137.5t-39 120t-125 27.5t-123 -6h-6l-20 108h106q68 0 110 44t42 100.5t-26.5 87t-76.5 30.5q-72 0 -190 -118q-55 70 -66 170q174 55 288 55t200 -43t86 -131t-49 -143.5t-105 -67.5q59 -4 113 -37 q100 -61 100 -186t-103.5 -207t-262 -82t-279.5 86z" />
<glyph unicode="&#xb4;" horiz-adv-x="1124" d="M297 1116q205 174 328 383q128 -45 202 -151q-223 -197 -454 -312z" />
<glyph unicode="&#xb6;" horiz-adv-x="1404" d="M10 929q0 220 153.5 353t403.5 137l811 11l-63 -168h-29q-94 27 -229 28v-1521q0 -190 8 -277l-201 -33l-8 29q23 158 23 303v1499h-131q-6 -471 -6.5 -1020t8.5 -635l-201 -32l-8 26q23 152 22 287v471q-252 2 -402.5 162t-150.5 380z" />
<glyph unicode="&#xb7;" horiz-adv-x="661" d="M143 618.5v36.5l21 19q131 43 266 43h23l24 -15q20 -18 28.5 -82.5t8.5 -99.5t-4 -59l-21 -19q-90 -27 -280 -43l-25 13q-18 31 -29.5 104.5t-11.5 102z" />
<glyph unicode="&#xb8;" horiz-adv-x="1069" d="M498 -387l39 84q66 -35 122 -35t85.5 18.5t29.5 48t-24 48.5q-29 8 -66 8t-80 -8l-26 39l88 180l155 -14l-69 -111q20 6 74.5 5t101.5 -43t47 -120t-72 -125t-149.5 -47t-151.5 26.5t-104 45.5z" />
<glyph unicode="&#xb9;" horiz-adv-x="598" d="M33 1350q152 20 241 84h185q-6 -105 -6 -142v-477q0 -172 18 -250v-8h-252v8q20 59 21 240v344q0 86 -7 117q-74 -16 -184 -21z" />
<glyph unicode="&#xba;" horiz-adv-x="837" d="M82 1119.5q0 140.5 100.5 241.5t255 101t236.5 -85t82 -226t-100.5 -242.5t-250 -101.5t-236.5 86t-87 226.5zM279 1151q0 -233 161 -233q47 -1 76 22q43 57 43 174t-32.5 176.5t-118.5 59.5q-55 0 -84 -23q-45 -57 -45 -176z" />
<glyph unicode="&#xbb;" horiz-adv-x="1292" d="M127 242l287 305l-273 293l97 96l331 -287q33 -29 131 -84l-14 -47l-78 -59l-262 -219q-27 -20 -110 -109zM592 242l287 305l-273 293l96 96l332 -287q33 -29 131 -84l-14 -47l-78 -59l-262 -219q-27 -20 -111 -109z" />
<glyph unicode="&#xbc;" horiz-adv-x="1683" d="M33 1350q152 20 241 84h185q-6 -105 -6 -142v-477q0 -172 18 -250v-8h-252v8q20 59 21 240v344q0 86 -7 117q-74 -16 -184 -21zM123 -10q113 106 395 491q438 598 696 989l222 15l30 -31q-184 -170 -852 -1132l-90 -127l-145 -222l-225 -14zM870 309q135 231 349 555 l256 15q-4 -111 -5 -541q33 0 95.5 4t66.5 4l-24 -143h-135q0 -123 18 -197v-6h-246v6q10 55 15 187v10h-338zM1018 332q68 0 244 4v385q-182 -272 -244 -389z" />
<glyph unicode="&#xbd;" horiz-adv-x="1781" d="M33 1350q152 20 241 84h185q-6 -105 -6 -142v-477q0 -172 18 -250v-8h-252v8q20 59 21 240v344q0 86 -7 117q-74 -16 -184 -21zM119 -10q113 106 395 491q438 598 696 989l222 15l30 -31q-180 -164 -852 -1132l-90 -127l-145 -222l-225 -14zM1034 100q98 92 151.5 144.5 t127.5 136.5q141 164 141 303q0 94 -68 94q-80 0 -249 -147q-86 84 -90 170q184 86 333.5 86t221 -54.5t71.5 -148.5q0 -197 -385 -551h88q225 12 303 70l33 -29l-55 -174h-592z" />
<glyph unicode="&#xbe;" horiz-adv-x="1884" d="M47 633q0 84 62 133q27 -25 93 -58.5t122.5 -34.5t91.5 15q57 45 57 137.5t-39 120t-125 27.5t-123 -6h-6l-20 108h106q68 0 110 44t42 100.5t-26.5 87t-76.5 30.5q-72 0 -190 -118q-55 70 -66 170q174 55 288 55t200 -43t86 -131t-49 -143.5t-105 -67.5q59 -4 113 -37 q100 -61 100 -186t-103.5 -207t-262 -82t-279.5 86zM319 -10q113 106 396 491q438 598 696 989l221 15l31 -31q-180 -164 -852 -1132l-90 -127l-146 -222l-225 -14zM1071 309q135 231 348 555l256 15q-4 -111 -4 -541q33 0 95.5 4t66.5 4l-25 -143h-135q0 -123 19 -197v-6 h-246v6q10 55 14 187v10h-338zM1219 332q67 0 243 4v385q-182 -272 -243 -389z" />
<glyph unicode="&#xbf;" horiz-adv-x="991" d="M76 -129q0 113 51 213t131 170q127 109 242 166v12q0 39 -25 123v37q74 14 134.5 14t125.5 -12v-39q-20 -94 -20 -130v-42l-41 -29q-324 -225 -324 -456q0 -184 172 -185q127 0 303 135q74 -106 74 -233v-27q-184 -63 -387 -63t-319.5 86t-116.5 260zM455 909q0 27 4 49 l18 17q78 23 201 33l22 -11q16 -29 25.5 -85t9.5 -79.5v-31.5l-18 -17q-106 -33 -197 -32q-10 0 -33 12q-33 29 -32 145z" />
<glyph unicode="&#xc0;" d="M-55 0v45q106 74 264 545t207 623.5t57 220.5l315 30q0 -78 136 -446q252 -688 350 -846q47 -80 106 -127v-45h-434v45q0 86 -129 438q-78 2 -215 2t-221 -2q-68 -233 -80 -287.5t-12 -150.5v-45h-344zM317 1661q29 150 119 219q94 -72 225.5 -142.5t235.5 -103.5 l-35 -96q-272 23 -545 123zM420 633h354q-12 35 -37 117q-53 182 -147 426q-68 -195 -170 -543z" />
<glyph unicode="&#xc1;" d="M-55 0v45q106 74 264 545t207 623.5t57 220.5l315 30q0 -78 136 -446q252 -688 350 -846q47 -80 106 -127v-45h-434v45q0 86 -129 438q-78 2 -215 2t-221 -2q-68 -233 -80 -287.5t-12 -150.5v-45h-344zM352 1634q104 33 235.5 103.5t225.5 142.5q90 -70 119 -219 q-273 -100 -545 -123zM420 633h354q-12 35 -37 117q-53 182 -147 426q-68 -195 -170 -543z" />
<glyph unicode="&#xc2;" d="M-55 0v45q106 74 264 545t207 623.5t57 220.5l315 30q0 -78 136 -446q252 -688 350 -846q47 -80 106 -127v-45h-434v45q0 86 -129 438q-78 2 -215 2t-221 -2q-68 -233 -80 -287.5t-12 -150.5v-45h-344zM326 1602q177 155 245 282h164q53 -109 154 -201q35 -33 102 -90 l-86 -92q-150 90 -258 211q-94 -96 -233 -201zM420 633h354q-12 35 -37 117q-53 182 -147 426q-68 -195 -170 -543z" />
<glyph unicode="&#xc3;" d="M-55 0v45q106 74 264 545t207 623.5t57 220.5l315 30q0 -78 136 -446q252 -688 350 -846q47 -80 106 -127v-45h-434v45q0 86 -129 438q-78 2 -215 2t-221 -2q-68 -233 -80 -287.5t-12 -150.5v-45h-344zM250 1659q53 63 130 133t124 70t164.5 -44t148.5 -44t49.5 3t42 13 t32.5 14t38 20.5t31 16.5l55 -51q-170 -207 -242 -207q-49 0 -171 49t-155.5 49t-51 -4t-28.5 -8t-30.5 -14t-26 -14.5t-28 -17.5t-23.5 -15zM420 633h354q-12 35 -37 117q-53 182 -147 426q-68 -195 -170 -543z" />
<glyph unicode="&#xc4;" d="M-55 0v45q106 74 264 545t207 623.5t57 220.5l315 30q0 -78 136 -446q252 -688 350 -846q47 -80 106 -127v-45h-434v45q0 86 -129 438q-78 2 -215 2t-221 -2q-68 -233 -80 -287.5t-12 -150.5v-45h-344zM276 1788l31 22q102 27 193 31h45l24 -12q14 -16 21.5 -69.5 t7.5 -82t-2 -47.5l-25 -22q-94 -25 -186 -31h-33l-30 10q-45 80 -46 201zM420 633h354q-12 35 -37 117q-53 182 -147 426q-68 -195 -170 -543zM715 1810l30 23q102 27 193 31h45l25 -13q14 -16 21 -69t7 -82t-2 -47l-24 -23q-94 -25 -187 -31h-32l-31 11q-45 80 -45 200z " />
<glyph unicode="&#xc5;" horiz-adv-x="1218" d="M-76 0v45q106 74 264 545t207 623.5t58 220.5h6q-98 63 -98.5 166.5t71.5 169t170 65.5q100 0 166 -61.5t66 -153.5t-72 -158l6 2q0 -78 135 -446q252 -688 350 -846q47 -80 107 -127v-45h-434v45q0 86 -129 438q-78 2 -215.5 2t-221.5 -2q-68 -233 -80 -287.5 t-12 -150.5v-45h-344zM399 633h355q-12 35 -37 117q-54 182 -148 426q-68 -195 -170 -543zM498 1634q-1 -112 108 -112q35 0 68 14q23 23 22 78q0 104 -106 104q-41 0 -70 -16q-23 -23 -22 -68z" />
<glyph unicode="&#xc6;" horiz-adv-x="1939" d="M-20 4v45q63 47 187 227.5t316 505.5q305 524 340 652l992 6l-62 -180h-39q-100 28 -387 28q-84 0 -131 -4q-4 -94 -4 -502l526 11l-71 -170h-39q-78 16 -228.5 16t-187.5 -4v-68q0 -344 6 -411q47 -4 156.5 -4t263.5 18t225 47h39l-39 -217h-971v45q35 147 35 412v90 q-170 0 -327 -2q-223 -399 -246 -496l-10 -45h-344zM653 694h254v281q0 82 -6 164q-133 -223 -248 -445z" />
<glyph unicode="&#xc7;" horiz-adv-x="1490" d="M100 706.5q0 -333.5 209 -532.5t506 -199q117 0 234.5 37t174 68t210.5 131l-76 111q-291 -147 -451 -148q-213 0 -355 155.5t-142 438.5q0 178 68.5 305t174.5 201q70 10 165 10t210 -40t256 -144q90 123 117 252q-223 106 -463 106q-356 0 -597 -209t-241 -542.5z M530 -387l39 84q66 -35 122.5 -35t86 18.5t29.5 48t-25 48.5q-29 8 -65.5 8t-79.5 -8l-27 39l88 180l156 -14l-70 -111q20 6 74.5 5t102 -43t47.5 -120t-72 -125t-149.5 -47t-151.5 26.5t-105 45.5z" />
<glyph unicode="&#xc8;" horiz-adv-x="1298" d="M221 0v45q35 147 35 412v518q0 266 -35 414v45l953 6l-62 -180h-39q-100 28 -387 28q-84 0 -131 -4q-4 -94 -4 -461l526 11l-71 -170h-39q-78 16 -228.5 16t-187.5 -4v-109q0 -344 6 -411q47 -4 156.5 -4t263 18t225.5 47h39l-39 -217h-981zM379 1790q76 109 205 154 q122 -211 325 -385l-75 -80q-231 115 -455 311z" />
<glyph unicode="&#xc9;" horiz-adv-x="1298" d="M221 0v45q35 147 35 412v518q0 266 -35 414v45l953 6l-62 -180h-39q-100 28 -387 28q-84 0 -131 -4q-4 -94 -4 -461l526 11l-71 -170h-39q-78 16 -228.5 16t-187.5 -4v-109q0 -344 6 -411q47 -4 156.5 -4t263 18t225.5 47h39l-39 -217h-981zM379 1561q205 174 328 383 q128 -46 202 -152q-223 -197 -454 -311z" />
<glyph unicode="&#xca;" horiz-adv-x="1298" d="M221 0v45q35 147 35 412v518q0 266 -35 414v45l953 6l-62 -180h-39q-100 28 -387 28q-84 0 -131 -4q-4 -94 -4 -461l526 11l-71 -170h-39q-78 16 -228.5 16t-187.5 -4v-109q0 -344 6 -411q47 -4 156.5 -4t263 18t225.5 47h39l-39 -217h-981zM311 1602q178 155 246 282 h164q53 -109 151 -201q37 -33 105 -90l-86 -92q-150 90 -258 211q-94 -96 -234 -201z" />
<glyph unicode="&#xcb;" d="M236 0v45q35 147 34 412v518q0 266 -34 414v45l952 6l-62 -180h-39q-100 28 -387 28q-84 0 -131 -4q-4 -94 -4 -461l527 11l-72 -170h-39q-78 16 -228.5 16t-187.5 -4v-109q0 -344 6 -411q47 -4 157 -4t263.5 18t225.5 47h38l-38 -217h-981zM276 1788l31 22 q102 27 193 31h45l24 -12q14 -16 21.5 -69.5t7.5 -82t-2 -47.5l-25 -22q-94 -25 -186 -31h-33l-30 10q-45 80 -46 201zM715 1810l30 23q102 27 193 31h45l25 -13q14 -16 21 -69t7 -82t-2 -47l-24 -23q-94 -25 -187 -31h-32l-31 11q-45 80 -45 200z" />
<glyph unicode="&#xcc;" horiz-adv-x="827" d="M150 1790q76 109 204 154q123 -211 326 -385l-76 -80q-231 115 -454 311zM236 0v45q33 123 32 426v510q0 285 -32 408v45h356v-45q-14 -47 -23.5 -197.5t-9.5 -230.5v-490q0 -303 33 -426v-45h-356z" />
<glyph unicode="&#xcd;" horiz-adv-x="827" d="M150 1561q205 174 327 383q129 -46 203 -152q-223 -197 -455 -311zM236 0v45q33 123 32 426v510q0 285 -32 408v45h356v-45q-14 -47 -23.5 -197.5t-9.5 -230.5v-490q0 -303 33 -426v-45h-356z" />
<glyph unicode="&#xce;" horiz-adv-x="827" d="M80 1602q178 155 246 282h163q53 -109 154 -201q35 -33 102 -90l-86 -92q-150 90 -258 211q-94 -96 -233 -201zM236 0v45q33 123 32 426v510q0 285 -32 408v45h356v-45q-14 -47 -23.5 -197.5t-9.5 -230.5v-490q0 -303 33 -426v-45h-356z" />
<glyph unicode="&#xcf;" horiz-adv-x="827" d="M33 1788l30 22q102 27 193 31h45l25 -12q14 -16 21 -69.5t7 -82t-2 -47.5l-24 -22q-94 -25 -187 -31h-32l-31 10q-45 80 -45 201zM236 0v45q33 123 32 426v510q0 285 -32 408v45h356v-45q-14 -47 -23.5 -197.5t-9.5 -230.5v-490q0 -303 33 -426v-45h-356zM471 1810l31 23 q102 27 192 31h45l25 -13q14 -16 21.5 -69t7.5 -82t-2 -47l-25 -23q-94 -25 -186 -31h-33l-31 11q-45 80 -45 200z" />
<glyph unicode="&#xd0;" horiz-adv-x="1658" d="M-23 666l70 157h29q98 0 151 -2v160q0 276 -34 408v45q90 -4 159 -4l408 6q406 0 602.5 -165t196.5 -507q0 -211 -76 -379t-221 -264q-180 -121 -494 -121h-39l-377 2h-159v45q35 131 34 406v223zM518 670q0 -426 6 -492q133 -10 234 -10q256 0 354 57q137 143 137 506 q0 301 -121.5 427t-406.5 126q-8 0 -199 -2q-4 -96 -4 -463l330 8l-70 -161h-28q-80 0 -232 4z" />
<glyph unicode="&#xd1;" horiz-adv-x="1613" d="M162 0v45q33 123 33 465v416q0 305 -27 460v46l324 22l720 -1012v539q0 104 -14 230t-33 178v45h289v-45q-12 -51 -22.5 -200t-10.5 -265v-488q0 -119 12.5 -260t20.5 -172l-268 -27l-783 1096v-622q0 -258 39 -406v-45h-280zM410 1659q53 63 129.5 133t124 70t165 -44 t148.5 -44t49 3t42 13t33 14t37.5 20.5t30.5 16.5l56 -51q-170 -207 -242 -207q-49 0 -171 49t-155.5 49t-51 -4t-29 -8t-31 -14t-25.5 -14.5t-27.5 -17.5t-23.5 -15z" />
<glyph unicode="&#xd2;" horiz-adv-x="1687" d="M100 705.5q0 316.5 219.5 536.5t559.5 220t524 -204.5t184 -503.5q0 -338 -220 -558.5t-547.5 -220.5t-523.5 207t-196 523.5zM410 767q0 -144 25.5 -247.5t79.5 -190.5t150.5 -137.5t232.5 -50.5t239 58q141 134 141 499q0 170 -40 297t-146.5 212t-274.5 85 q-76 0 -153.5 -17.5t-112.5 -37.5q-61 -63 -101 -194.5t-40 -275.5zM578 1790q76 109 204 154q123 -211 326 -385l-76 -80q-231 115 -454 311z" />
<glyph unicode="&#xd3;" horiz-adv-x="1687" d="M100 705.5q0 316.5 219.5 536.5t559.5 220t524 -204.5t184 -503.5q0 -338 -220 -558.5t-547.5 -220.5t-523.5 207t-196 523.5zM410 767q0 -144 25.5 -247.5t79.5 -190.5t150.5 -137.5t232.5 -50.5t239 58q141 134 141 499q0 170 -40 297t-146.5 212t-274.5 85 q-76 0 -153.5 -17.5t-112.5 -37.5q-61 -63 -101 -194.5t-40 -275.5zM578 1561q205 174 327 383q129 -46 203 -152q-223 -197 -455 -311z" />
<glyph unicode="&#xd4;" horiz-adv-x="1687" d="M100 705.5q0 316.5 219.5 536.5t559.5 220t524 -204.5t184 -503.5q0 -338 -220 -558.5t-547.5 -220.5t-523.5 207t-196 523.5zM410 767q0 -144 25.5 -247.5t79.5 -190.5t150.5 -137.5t232.5 -50.5t239 58q141 134 141 499q0 170 -40 297t-146.5 212t-274.5 85 q-76 0 -153.5 -17.5t-112.5 -37.5q-61 -63 -101 -194.5t-40 -275.5zM510 1602q178 155 246 282h164q53 -109 153 -201q35 -33 103 -90l-86 -92q-150 90 -259 211q-94 -96 -233 -201z" />
<glyph unicode="&#xd5;" horiz-adv-x="1685" d="M100 705.5q0 316.5 219.5 536.5t559.5 220t524 -204.5t184 -503.5q0 -338 -220 -558.5t-547.5 -220.5t-523.5 207t-196 523.5zM410 767q0 -144 25.5 -247.5t79.5 -190.5t150.5 -137.5t232.5 -50.5t239 58q141 134 141 499q0 170 -40 297t-146.5 212t-274.5 85 q-76 0 -153.5 -17.5t-112.5 -37.5q-61 -63 -101 -194.5t-40 -275.5zM434 1659q53 63 130 133t124 70t165 -44t148.5 -44t49 3t42 13t33 14t38 20.5t30.5 16.5l55 -51q-169 -207 -241 -207q-49 0 -171 49t-156 49t-51.5 -4t-28.5 -8t-30.5 -14t-25.5 -14.5t-27.5 -17.5 t-23.5 -15z" />
<glyph unicode="&#xd6;" horiz-adv-x="1685" d="M100 705.5q0 316.5 219.5 536.5t559.5 220t524 -204.5t184 -503.5q0 -338 -220 -558.5t-547.5 -220.5t-523.5 207t-196 523.5zM410 767q0 -144 25.5 -247.5t79.5 -190.5t150.5 -137.5t232.5 -50.5t239 58q141 134 141 499q0 170 -40 297t-146.5 212t-274.5 85 q-76 0 -153.5 -17.5t-112.5 -37.5q-61 -63 -101 -194.5t-40 -275.5zM461 1788l31 22q102 27 192 31h45l25 -12q14 -16 21 -69.5t7 -82t-2 -47.5l-24 -22q-94 -25 -187 -31h-32l-31 10q-45 80 -45 201zM899 1810l31 23q102 27 192 31h45l25 -13q14 -16 21.5 -69t7.5 -82 t-2 -47l-25 -23q-94 -25 -186 -31h-33l-31 11q-45 80 -45 200z" />
<glyph unicode="&#xd7;" horiz-adv-x="1253" d="M147 307l330 307l-330 308l152 143l328 -311l325 311l150 -145l-328 -308q276 -254 332 -307l-150 -143l-331 311q-45 -43 -326 -311z" />
<glyph unicode="&#xd8;" horiz-adv-x="1660" d="M4 694q0 328 219 548t565 220q244 0 418 -121l97 148l258 29v-13q-139 -160 -232 -274q162 -193 162 -477q0 -338 -220 -558.5t-552 -220.5q-182 0 -328 70q-78 -106 -112 -166l-269 -35v13q76 84 236 282q-117 98 -179.5 242.5t-62.5 312.5zM313 745q0 -248 97 -405 q463 559 651 805q-121 147 -340 147q-76 0 -154 -17.5t-112 -37.5q-61 -63 -101.5 -194.5t-40.5 -297.5zM522 219q111 -78 263.5 -78t254.5 58q142 134 142 499q0 166 -43 297q-352 -438 -617 -776z" />
<glyph unicode="&#xd9;" horiz-adv-x="1574" d="M150 1389v45h352v-45q-29 -184 -29 -478v-252q0 -207 25.5 -295t62.5 -126q84 -92 257 -92.5t257 53.5q53 80 67.5 219t14.5 472t-33 499v45h293v-43q-14 -47 -23.5 -179t-9.5 -206v-367q0 -373 -136 -517.5t-457.5 -144.5t-465 140.5t-143.5 449.5v406q0 305 -32 416z M522 1790q76 109 205 154q123 -211 326 -385l-76 -80q-231 115 -455 311z" />
<glyph unicode="&#xda;" horiz-adv-x="1574" d="M150 1389v45h352v-45q-29 -184 -29 -478v-252q0 -207 25.5 -295t62.5 -126q84 -92 257 -92.5t257 53.5q53 80 67.5 219t14.5 472t-33 499v45h293v-43q-14 -47 -23.5 -179t-9.5 -206v-367q0 -373 -136 -517.5t-457.5 -144.5t-465 140.5t-143.5 449.5v406q0 305 -32 416z M522 1561q205 174 328 383q129 -46 203 -152q-223 -197 -455 -311z" />
<glyph unicode="&#xdb;" horiz-adv-x="1574" d="M150 1389v45h352v-45q-29 -184 -29 -478v-252q0 -207 25.5 -295t62.5 -126q84 -92 257 -92.5t257 53.5q53 80 67.5 219t14.5 472t-33 499v45h293v-43q-14 -47 -23.5 -179t-9.5 -206v-367q0 -373 -136 -517.5t-457.5 -144.5t-465 140.5t-143.5 449.5v406q0 305 -32 416z M455 1602q177 155 245 282h164q53 -109 152 -201q37 -33 104 -90l-86 -92q-150 90 -258 211q-94 -96 -233 -201z" />
<glyph unicode="&#xdc;" horiz-adv-x="1574" d="M150 1389v45h352v-45q-29 -184 -29 -478v-252q0 -207 25.5 -295t62.5 -126q84 -92 257 -92.5t257 53.5q53 80 67.5 219t14.5 472t-33 499v45h293v-43q-14 -47 -23.5 -179t-9.5 -206v-367q0 -373 -136 -517.5t-457.5 -144.5t-465 140.5t-143.5 449.5v406q0 305 -32 416z M406 1788l30 22q102 27 193 31h45l24 -12q14 -16 21.5 -69.5t7.5 -82t-2 -47.5l-25 -22q-94 -25 -186 -31h-33l-30 10q-45 80 -45 201zM844 1810l30 23q102 27 193 31h45l25 -13q14 -16 21 -69t7 -82t-2 -47l-24 -23q-94 -25 -187 -31h-32l-31 11q-45 80 -45 200z" />
<glyph unicode="&#xdd;" horiz-adv-x="1185" d="M-18 1389v45h378v-45q0 -82 76 -236t199 -375q172 348 211 451.5t39 159.5v45h297v-45q-74 -51 -181 -250q-59 -111 -262 -541v-147q0 -74 9.5 -216.5t21.5 -189.5v-45h-332v45q31 117 31 352v205l-201 373q-80 145 -164 270t-122 144zM328 1561q205 174 327 383 q129 -46 203 -152q-223 -197 -455 -311z" />
<glyph unicode="&#xde;" horiz-adv-x="1384" d="M221 0v45q31 117 31 412v520q0 295 -31 412v45h350v-45q-8 -31 -18 -148q49 2 164 2q289 0 439.5 -91t150.5 -314.5t-176.5 -350.5t-446.5 -127q-66 0 -139 13q10 -254 26 -328v-45h-350zM543 498q66 -16 139 -17q156 0 236.5 89t80.5 247t-67.5 225.5t-215 67.5 t-169.5 -2q-4 -107 -4 -127v-483z" />
<glyph unicode="&#xdf;" horiz-adv-x="1359" d="M72 778l69 164l113 -6v70q0 215 144.5 357t361.5 142h8q154 -2 251 -70.5t97 -211.5q0 -55 -25.5 -101.5t-49 -69t-68.5 -55t-64 -51.5q-57 -53 -57 -129q0 -66 53 -106q43 -33 112.5 -68t107.5 -58.5t87 -64.5q94 -84 94.5 -233.5t-103 -238.5t-277.5 -93h-13 q-178 0 -309 96q2 115 70 234q47 -57 130 -109.5t137 -52.5t79 12q25 25 24 141q0 68 -53 113q-43 33 -109.5 70t-102.5 60.5t-79 62.5t-64.5 90t-21.5 115.5t28 121t54.5 84t68.5 61t58 48.5q47 45 47 104q0 127 -196 127q-72 0 -111 -24q-39 -49 -39 -232v-1102h-307v45 q37 96 37 324v440q-74 0 -182 -6z" />
<glyph unicode="&#xe0;" horiz-adv-x="1130" d="M92 266q0 285 416 285l182 -8v125q0 106 -53 171.5t-164 65.5q-25 0 -70 -29.5t-194 -179.5q-102 121 -111 244q262 82 442.5 82t301.5 -84t121 -264v-322q0 -92 30.5 -176t75.5 -113l4 -45l-293 -61q-33 61 -61 172q-53 -57 -86 -85t-91.5 -54.5t-123.5 -26.5 q-129 0 -227.5 78t-98.5 225zM227 1346q76 109 205 153q123 -211 326 -385l-76 -80q-231 115 -455 312zM362 301q1 -160 140 -160q115 0 190 95v174q-74 27 -163 26.5t-136 -33.5q-31 -39 -31 -102z" />
<glyph unicode="&#xe1;" horiz-adv-x="1130" d="M92 266q0 285 416 285l182 -8v125q0 106 -53 171.5t-164 65.5q-25 0 -70 -29.5t-194 -179.5q-102 121 -111 244q262 82 442.5 82t301.5 -84t121 -264v-322q0 -92 30.5 -176t75.5 -113l4 -45l-293 -61q-33 61 -61 172q-53 -57 -86 -85t-91.5 -54.5t-123.5 -26.5 q-129 0 -227.5 78t-98.5 225zM362 301q1 -160 140 -160q115 0 190 95v174q-74 27 -163 26.5t-136 -33.5q-31 -39 -31 -102zM403 1116q205 174 328 383q129 -45 203 -151q-223 -197 -455 -312z" />
<glyph unicode="&#xe2;" horiz-adv-x="1130" d="M92 266q0 285 416 285l182 -8v125q0 106 -53 171.5t-164 65.5q-25 0 -70 -29.5t-194 -179.5q-102 121 -111 244q262 82 442.5 82t301.5 -84t121 -264v-322q0 -92 30.5 -176t75.5 -113l4 -45l-293 -61q-33 61 -61 172q-53 -57 -86 -85t-91.5 -54.5t-123.5 -26.5 q-129 0 -227.5 78t-98.5 225zM246 1157q178 156 246 283h163q53 -109 152 -201q37 -33 104 -90l-86 -92q-150 90 -258 211q-94 -96 -233 -201zM362 301q1 -160 140 -160q115 0 190 95v174q-74 27 -163 26.5t-136 -33.5q-31 -39 -31 -102z" />
<glyph unicode="&#xe3;" horiz-adv-x="1130" d="M92 266q0 285 416 285l182 -8v125q0 106 -53 171.5t-164 65.5q-25 0 -70 -29.5t-194 -179.5q-102 121 -111 244q262 82 442.5 82t301.5 -84t121 -264v-322q0 -92 30.5 -176t75.5 -113l4 -45l-293 -61q-33 61 -61 172q-53 -57 -86 -85t-91.5 -54.5t-123.5 -26.5 q-129 0 -227.5 78t-98.5 225zM174 1214q53 63 130 133t124 70t165 -44t148.5 -44t49 3t42 13.5t32.5 14.5t38 20.5t31 16.5l55 -51q-169 -207 -241 -207q-49 0 -171 49t-156 49t-51.5 -4t-28.5 -8t-30.5 -14.5t-25.5 -14.5t-27.5 -17.5t-24.5 -15.5zM362 301 q1 -160 140 -160q115 0 190 95v174q-74 27 -163 26.5t-136 -33.5q-31 -39 -31 -102z" />
<glyph unicode="&#xe4;" horiz-adv-x="1130" d="M92 266q0 285 416 285l182 -8v125q0 106 -53 171.5t-164 65.5q-25 0 -70 -29.5t-194 -179.5q-102 121 -111 244q262 82 442.5 82t301.5 -84t121 -264v-322q0 -92 30.5 -176t75.5 -113l4 -45l-293 -61q-33 61 -61 172q-53 -57 -86 -85t-91.5 -54.5t-123.5 -26.5 q-129 0 -227.5 78t-98.5 225zM201 1343l30 23q102 27 193 31h45l25 -13q14 -16 21 -69t7 -82t-2 -47l-24 -23q-94 -25 -187 -30h-33l-30 10q-45 80 -45 200zM362 301q1 -160 140 -160q115 0 190 95v174q-74 27 -163 26.5t-136 -33.5q-31 -39 -31 -102zM639 1366l31 23 q102 27 192 30h45l25 -12q14 -16 21.5 -69.5t7.5 -82t-3 -47.5l-24 -22q-94 -25 -186 -31h-33l-31 10q-45 80 -45 201z" />
<glyph unicode="&#xe5;" horiz-adv-x="1130" d="M92 266q0 285 416 285l182 -8v125q0 106 -53 171.5t-164 65.5q-25 0 -70 -29.5t-194 -179.5q-102 121 -111 244q262 82 442.5 82t301.5 -84t121 -264v-322q0 -92 30.5 -176t75.5 -113l4 -45l-293 -61q-33 61 -61 172q-53 -57 -86 -85t-91.5 -54.5t-123.5 -26.5 q-129 0 -227.5 78t-98.5 225zM307 1299.5q0 93.5 66.5 159t158.5 65.5q96 0 157 -62.5t61 -155t-66 -157.5q-66 -68 -161 -68t-155.5 62.5t-60.5 156zM362 301q1 -160 140 -160q115 0 190 95v174q-74 27 -163 26.5t-136 -33.5q-31 -39 -31 -102zM440 1317q1 -100 97 -100 q39 0 61 14q20 25 20 65q0 92 -96 93q-39 0 -61 -15q-20 -20 -21 -57z" />
<glyph unicode="&#xe6;" horiz-adv-x="1708" d="M92 260q0 281 416 281l182 -9v130q0 111 -53 177t-164 66q-25 0 -63.5 -25.5t-65.5 -52.5q-84 -80 -135 -131q-102 121 -111 244q262 82 447 82q229 0 342 -127q143 127 343 127t298 -129t98 -356l-78 -80h-561q2 -147 79 -227t184.5 -80t324.5 112l51 -78 q-39 -37 -88 -75.5t-165 -93t-220 -54.5q-197 0 -334 148q-178 -145 -347 -145.5t-274.5 74.5t-105.5 222zM362 295q0 -154 144 -154q125 0 229 90q-41 82 -41 170v2q-86 23 -170 23t-131 -31q-31 -39 -31 -100zM989 575l359 21q0 295 -166 295q-76 0 -121 -31 q-33 -51 -51.5 -135t-20.5 -150z" />
<glyph unicode="&#xe7;" horiz-adv-x="1110" d="M90 494.5q0 218.5 170 373t389 154.5t377 -104q-70 -117 -131 -183q-166 127 -317 127q-39 0 -70 -6q-53 -49 -88 -143t-35 -209q0 -358 209 -359q147 0 387 125l53 -84q-68 -63 -181.5 -129.5t-207.5 -87.5l-61 -98q20 6 74.5 5t101.5 -43t47 -120t-71.5 -125 t-149.5 -47t-152 26.5t-104 45.5l39 84q66 -35 122 -35t85.5 18.5t29.5 48t-24 48.5q-29 8 -66 8t-80 -8l-26 39l75 155q-186 31 -290.5 168t-104.5 355.5z" />
<glyph unicode="&#xe8;" horiz-adv-x="1105" d="M90 453.5q0 226.5 149.5 397.5t387.5 171q201 0 299 -129t98 -356l-78 -80h-561q2 -147 79 -227t184.5 -80t324.5 112l51 -78q-39 -37 -88 -75.5t-165 -93t-220 -54.5q-178 0 -319.5 133t-141.5 359.5zM203 1346q76 109 205 153q122 -211 325 -385l-76 -80 q-231 115 -454 312zM387 575l358 21q1 295 -165 295q-76 0 -121 -31q-33 -51 -51.5 -135t-20.5 -150z" />
<glyph unicode="&#xe9;" horiz-adv-x="1105" d="M90 453.5q0 226.5 149.5 397.5t387.5 171q201 0 299 -129t98 -356l-78 -80h-561q2 -147 79 -227t184.5 -80t324.5 112l51 -78q-39 -37 -88 -75.5t-165 -93t-220 -54.5q-178 0 -319.5 133t-141.5 359.5zM379 1116q205 174 328 383q128 -45 202 -151q-223 -197 -454 -312z M387 575l358 21q1 295 -165 295q-76 0 -121 -31q-33 -51 -51.5 -135t-20.5 -150z" />
<glyph unicode="&#xea;" horiz-adv-x="1105" d="M90 453.5q0 226.5 149.5 397.5t387.5 171q201 0 299 -129t98 -356l-78 -80h-561q2 -147 79 -227t184.5 -80t324.5 112l51 -78q-39 -37 -88 -75.5t-165 -93t-220 -54.5q-178 0 -319.5 133t-141.5 359.5zM225 1157q178 156 246 283h164q53 -109 151 -201q37 -33 105 -90 l-86 -92q-150 90 -258 211q-94 -96 -234 -201zM387 575l358 21q1 295 -165 295q-76 0 -121 -31q-33 -51 -51.5 -135t-20.5 -150z" />
<glyph unicode="&#xeb;" horiz-adv-x="1105" d="M90 453.5q0 226.5 149.5 397.5t387.5 171q201 0 299 -129t98 -356l-78 -80h-561q2 -147 79 -227t184.5 -80t324.5 112l51 -78q-39 -37 -88 -75.5t-165 -93t-220 -54.5q-178 0 -319.5 133t-141.5 359.5zM184 1343l31 23q102 27 193 31h45l24 -13q14 -16 21.5 -69t7.5 -82 t-2 -47l-25 -23q-94 -25 -186 -30h-33l-31 10q-45 80 -45 200zM387 575l358 21q1 295 -165 295q-76 0 -121 -31q-33 -51 -51.5 -135t-20.5 -150zM623 1366l30 23q102 27 193 30h45l24 -12q14 -16 21.5 -69.5t7.5 -82t-2 -47.5l-24 -22q-94 -25 -187 -31h-33l-30 10 q-45 80 -45 201z" />
<glyph unicode="&#xec;" horiz-adv-x="686" d="M-57 1346q76 109 204 153q123 -211 326 -385l-76 -80q-231 115 -454 312zM70 915v46l381 69l24 -41q-12 -47 -12 -184v-438q0 -195 59 -322v-45h-364v45q35 104 35 277v303q0 113 -35 187.5t-88 102.5z" />
<glyph unicode="&#xed;" horiz-adv-x="620" d="M137 915v46l381 69l25 -41q-12 -47 -13 -184v-438q0 -195 60 -322v-45h-365v45q35 104 35 277v303q0 113 -35 187.5t-88 102.5zM186 1116q205 174 328 383q129 -45 203 -151q-223 -197 -455 -312z" />
<glyph unicode="&#xee;" horiz-adv-x="813" d="M4 1128q68 70 99.5 105t75.5 98.5t69 124.5l203 29q27 -72 71.5 -141.5t75.5 -105.5t100 -112l-110 -104q-55 43 -133 117.5t-123 130.5q-90 -109 -219 -234zM174 903v53l356 58l29 -45q-8 -61 -8 -170v-471q0 -190 53 -312v-41h-356v41q33 93 33 263v387q0 170 -107 237 z" />
<glyph unicode="&#xef;" horiz-adv-x="823" d="M47 1321l35 31q86 29 174 34h45l31 -16q41 -41 41 -145q0 -10 -4 -39l-29 -25q-88 -29 -176 -35h-35l-43 13q-39 74 -39 182zM174 903v51l356 58l27 -43q-6 -61 -6 -170v-471q0 -190 53 -312v-41h-356v41q33 92 33 260v390q0 78 -29 141t-78 96zM410 1341l34 29 q86 29 172 33h46l32 -14q39 -39 39 -148q0 -23 -2 -39l-29 -24q-92 -27 -178 -33h-35l-40 10q-39 72 -39 186z" />
<glyph unicode="&#xf0;" horiz-adv-x="1259" d="M90 1440l365 78q68 -106 159 -209l312 114l-11 -168q-68 -20 -196 -63q92 -92 159.5 -154.5t137.5 -132.5q154 -154 153.5 -385t-158 -395t-396 -164t-375 139.5t-136.5 370.5q0 297 236 451q127 86 264 86q-63 68 -104 106q-233 -86 -326 -125l14 176q41 12 183 58 q-123 98 -275 172zM399 520q0 -428 273 -428q82 0 133 43q35 47 52 144.5t17 187.5q0 199 -57 310.5t-201 111.5q-92 0 -143 -45q-33 -47 -53.5 -141.5t-20.5 -182.5z" />
<glyph unicode="&#xf1;" d="M100 915v46l332 63l23 -39q16 -49 22 -131q104 84 181 126t163 42q154 0 238 -95.5t84 -275.5v-260q0 -203 61 -346v-45h-360v45q35 96 35 277v256q0 119 -29 175t-123 56t-240 -86v-336q0 -215 60 -342v-45h-359v45q35 104 35 291v274q0 244 -123 305zM248 1214 q53 63 130 133t124 70t164.5 -44t148.5 -44t49.5 3t42 13.5t32.5 14.5t38 20.5t31 16.5l55 -51q-170 -207 -242 -207q-49 0 -171 49t-155.5 49t-51 -4t-29 -8t-30.5 -14.5t-25.5 -14.5t-28 -17.5t-23.5 -15.5z" />
<glyph unicode="&#xf2;" horiz-adv-x="1245" d="M90 467q0 227 158 390t402.5 163t374.5 -136t130 -365.5t-157.5 -393.5t-396.5 -164t-375 139.5t-136 366.5zM268 1346q76 109 205 153q123 -211 326 -385l-76 -80q-231 115 -455 312zM385 520q0 -428 272 -428q82 0 134 43q35 47 52 144.5t17 187.5q0 199 -57.5 310.5 t-200.5 111.5q-92 0 -143 -45q-33 -47 -53.5 -141.5t-20.5 -182.5z" />
<glyph unicode="&#xf3;" horiz-adv-x="1245" d="M90 467q0 227 158 390t402.5 163t374.5 -136t130 -365.5t-157.5 -393.5t-396.5 -164t-375 139.5t-136 366.5zM385 520q0 -428 272 -428q82 0 134 43q35 47 52 144.5t17 187.5q0 199 -57.5 310.5t-200.5 111.5q-92 0 -143 -45q-33 -47 -53.5 -141.5t-20.5 -182.5z M444 1116q205 174 328 383q129 -45 203 -151q-223 -197 -455 -312z" />
<glyph unicode="&#xf4;" horiz-adv-x="1245" d="M90 467q0 227 158 390t402.5 163t374.5 -136t130 -365.5t-157.5 -393.5t-396.5 -164t-375 139.5t-136 366.5zM289 1157q178 156 246 283h163q53 -109 154 -201q35 -33 102 -90l-86 -92q-150 90 -258 211q-94 -96 -233 -201zM385 520q0 -428 272 -428q82 0 134 43 q35 47 52 144.5t17 187.5q0 199 -57.5 310.5t-200.5 111.5q-92 0 -143 -45q-33 -47 -53.5 -141.5t-20.5 -182.5z" />
<glyph unicode="&#xf5;" horiz-adv-x="1245" d="M90 467q0 227 158 390t402.5 163t374.5 -136t130 -365.5t-157.5 -393.5t-396.5 -164t-375 139.5t-136 366.5zM215 1214q53 63 130 133t124 70t165 -44t148.5 -44t49 3t42 13.5t32.5 14.5t38 20.5t31 16.5l55 -51q-170 -207 -242 -207q-49 0 -170.5 49t-155.5 49t-51.5 -4 t-28.5 -8t-30.5 -14.5t-26 -14.5t-28 -17.5t-23.5 -15.5zM385 520q0 -428 272 -428q82 0 134 43q35 47 52 144.5t17 187.5q0 199 -57.5 310.5t-200.5 111.5q-92 0 -143 -45q-33 -47 -53.5 -141.5t-20.5 -182.5z" />
<glyph unicode="&#xf6;" horiz-adv-x="1245" d="M90 467q0 227 158 390t402.5 163t374.5 -136t130 -365.5t-157.5 -393.5t-396.5 -164t-375 139.5t-136 366.5zM233 1343l31 23q102 27 193 31h45l24 -13q14 -16 21.5 -69t7.5 -82t-2 -47l-25 -23q-94 -25 -186 -30h-33l-30 10q-45 80 -46 200zM385 520q0 -428 272 -428 q82 0 134 43q35 47 52 144.5t17 187.5q0 199 -57.5 310.5t-200.5 111.5q-92 0 -143 -45q-33 -47 -53.5 -141.5t-20.5 -182.5zM672 1366l30 23q102 27 193 30h45l25 -12q14 -16 21 -69.5t7 -82t-2 -47.5l-24 -22q-94 -25 -187 -31h-32l-31 10q-45 80 -45 201z" />
<glyph unicode="&#xf7;" horiz-adv-x="1173" d="M20 526l3 181l1130 -2l-4 -179h-1129zM440 335q0 50 39 84t97.5 34t97.5 -34t39 -84t-40 -84t-97.5 -34t-96.5 34t-39 84zM440 897q0 51 39 85t97.5 34t97.5 -34t39 -85t-39 -84t-98.5 -33t-97.5 33t-38 84z" />
<glyph unicode="&#xf8;" horiz-adv-x="1216" d="M63 471q0 223 158 386t391 163q90 0 164 -19q29 53 68 144l190 16l-4 -45q-45 -61 -110 -170q208 -127 208 -434q0 -223 -157.5 -387t-390.5 -164q-102 0 -193 29q-53 -106 -70 -146l-219 -37l4 43q49 63 144 209q-182 139 -183 412zM358 497.5q0 -110.5 27 -204.5 q102 176 303 545l10 20q-55 31 -135 31t-131 -45q-33 -47 -53.5 -141.5t-20.5 -205zM469 147q66 -55 155 -55t140 43q70 94 70 373q0 129 -39 227q-55 -94 -326 -588z" />
<glyph unicode="&#xf9;" horiz-adv-x="1310" d="M113 938v45h356v-49q-31 -106 -31 -277v-272q0 -102 35 -158.5t98 -56.5q109 0 258 104v322q0 207 -59 342v45h354v-49q-31 -106 -30 -277v-272q0 -92 29.5 -180t70.5 -123l6 -45l-321 -82q-43 74 -50 166q-176 -147 -301 -148q-209 0 -281.5 89.5t-72.5 289.5v244 q0 203 -61 342zM301 1346q76 109 205 153q122 -211 325 -385l-75 -80q-231 115 -455 312z" />
<glyph unicode="&#xfa;" horiz-adv-x="1310" d="M113 938v45h356v-49q-31 -106 -31 -277v-272q0 -102 35 -158.5t98 -56.5q109 0 258 104v322q0 207 -59 342v45h354v-49q-31 -106 -30 -277v-272q0 -92 29.5 -180t70.5 -123l6 -45l-321 -82q-43 74 -50 166q-176 -147 -301 -148q-209 0 -281.5 89.5t-72.5 289.5v244 q0 203 -61 342zM477 1116q205 174 328 383q129 -45 203 -151q-223 -197 -455 -312z" />
<glyph unicode="&#xfb;" horiz-adv-x="1310" d="M113 938v45h356v-49q-31 -106 -31 -277v-272q0 -102 35 -158.5t98 -56.5q109 0 258 104v322q0 207 -59 342v45h354v-49q-31 -106 -30 -277v-272q0 -92 29.5 -180t70.5 -123l6 -45l-321 -82q-43 74 -50 166q-176 -147 -301 -148q-209 0 -281.5 89.5t-72.5 289.5v244 q0 203 -61 342zM326 1157q177 156 245 283h164q53 -109 154 -201q35 -33 102 -90l-86 -92q-150 90 -258 211q-94 -96 -233 -201z" />
<glyph unicode="&#xfc;" horiz-adv-x="1310" d="M113 938v45h356v-49q-31 -106 -31 -277v-272q0 -102 35 -158.5t98 -56.5q109 0 258 104v322q0 207 -59 342v45h354v-49q-31 -106 -30 -277v-272q0 -92 29.5 -180t70.5 -123l6 -45l-321 -82q-43 74 -50 166q-176 -147 -301 -148q-209 0 -281.5 89.5t-72.5 289.5v244 q0 203 -61 342zM236 1343l30 23q102 27 193 31h45l24 -13q14 -16 21.5 -69t7.5 -82t-2 -47l-25 -23q-94 -25 -186 -30h-33l-30 10q-45 80 -45 200zM674 1366l31 23q102 27 192 30h45l25 -12q14 -16 21 -69.5t7 -82t-2 -47.5l-24 -22q-94 -25 -187 -31h-32l-31 10 q-45 80 -45 201z" />
<glyph unicode="&#xfd;" horiz-adv-x="1030" d="M-14 942v45l354 23v-29q0 -98 72 -289l159 -428q172 530 172 629v4q0 31 -10 53v45h297v-45q-27 -29 -83 -180.5t-243.5 -685t-193.5 -551.5v-37l-332 -18l-6 45q57 70 94 121q100 141 176 338l-292 673q-100 233 -164 287zM330 1116q205 174 327 383q129 -45 203 -151 q-223 -197 -454 -312z" />
<glyph unicode="&#xfe;" horiz-adv-x="1304" d="M102 1413v49l338 56l29 -45q-6 -61 -6 -170v-414q137 137 287 137q207 0 334.5 -137t127.5 -334q0 -244 -172 -416t-391 -172q-78 0 -172 17v-97q0 -231 88 -331v-45l-368 -37q10 100 10 321l-4 1376q0 156 -101 242zM477 188q133 -63 252 -63q49 0 90 10q49 61 74 175 t25 206q0 324 -170 324q-123 0 -271 -92v-560z" />
<glyph unicode="&#xff;" horiz-adv-x="1110" d="M4 942v45l354 23v-29q0 -98 72 -289l160 -428q172 530 172 629v4q0 31 -10 53v45h297v-45q-27 -29 -83.5 -180.5t-243.5 -685t-194 -551.5v-37l-331 -18l-7 45q57 70 93 121q102 141 178 338l-293 673q-100 233 -164 287zM162 1343l31 23q102 27 192 31h45l25 -13 q14 -16 21 -69t7 -82t-2 -47l-24 -23q-94 -25 -187 -30h-32l-31 10q-45 80 -45 200zM600 1366l31 23q102 27 192 30h45l25 -12q14 -16 21.5 -69.5t7.5 -82t-2 -47.5l-25 -22q-94 -25 -186 -31h-33l-31 10q-45 80 -45 201z" />
<glyph unicode="&#x152;" horiz-adv-x="2357" d="M100 706.5q0 319.5 219.5 537.5t563.5 218q233 0 403 -125q-6 43 -12 68v29l956 6l-65 -180h-49q-131 29 -311.5 28.5t-205.5 -2.5q-4 -94 -4 -463l525 8l-43 -167h-45q-152 16 -253.5 16t-183.5 -4v-109q0 -344 9 -411q41 -4 145 -4q332 0 489 65h62l-45 -217h-989v31 q10 29 20 100q-207 -154 -465 -154q-332 0 -526.5 205t-194.5 524.5zM412 760q0 -610 497 -610q135 0 240 63l-6 -2q67 68 102 201t35 268t-21.5 237.5t-72.5 188.5q-106 178 -377 178q-68 0 -144.5 -16.5t-117.5 -38.5q-59 -70 -97 -202t-38 -267z" />
<glyph unicode="&#x153;" horiz-adv-x="1925" d="M90 467q0 227 158 390t391 163q285 0 418 -172q154 174 389 174q201 0 299 -129t98 -356l-78 -80h-561q2 -147 79 -227t184.5 -80t324.5 112l51 -78q-39 -37 -88 -75.5t-164.5 -93t-218 -54.5t-199 46t-163.5 132q-162 -178 -405 -178t-379 139.5t-136 366.5zM385 520 q0 -428 272 -428q82 0 134 43q35 47 52 144.5t17 187.5q0 199 -57.5 310.5t-200.5 111.5q-92 0 -143 -45q-33 -47 -53.5 -141.5t-20.5 -182.5zM1206 575l359 21q0 295 -166 295q-76 0 -121 -31q-33 -51 -51.5 -135t-20.5 -150z" />
<glyph unicode="&#x2c6;" horiz-adv-x="1024" d="M178 1157q178 156 246 283h164q53 -109 153 -201q35 -33 103 -90l-86 -92q-150 90 -258 211q-94 -96 -234 -201z" />
<glyph unicode="&#x2dc;" horiz-adv-x="1079" d="M131 1214q53 63 130 133t124 70t165 -44t148.5 -44t49 3t42 13.5t32.5 14.5t38 20.5t31 16.5l55 -51q-169 -207 -241 -207q-49 0 -171 49t-156 49t-51.5 -4t-28.5 -8t-30.5 -14.5t-25.5 -14.5t-27.5 -17.5t-24.5 -15.5z" />
<glyph unicode="&#x2000;" horiz-adv-x="972" />
<glyph unicode="&#x2001;" horiz-adv-x="1944" />
<glyph unicode="&#x2002;" horiz-adv-x="972" />
<glyph unicode="&#x2003;" horiz-adv-x="1944" />
<glyph unicode="&#x2004;" horiz-adv-x="648" />
<glyph unicode="&#x2005;" horiz-adv-x="486" />
<glyph unicode="&#x2006;" horiz-adv-x="324" />
<glyph unicode="&#x2007;" horiz-adv-x="324" />
<glyph unicode="&#x2008;" horiz-adv-x="243" />
<glyph unicode="&#x2009;" horiz-adv-x="388" />
<glyph unicode="&#x200a;" horiz-adv-x="108" />
<glyph unicode="&#x2010;" horiz-adv-x="741" d="M2 461l78 205h29q82 -18 178 -19l168 2q45 0 140 4t144 4l-77 -202h-29q-139 18 -357 18z" />
<glyph unicode="&#x2011;" horiz-adv-x="741" d="M2 461l78 205h29q82 -18 178 -19l168 2q45 0 140 4t144 4l-77 -202h-29q-139 18 -357 18z" />
<glyph unicode="&#x2012;" horiz-adv-x="741" d="M2 461l78 205h29q82 -18 178 -19l168 2q45 0 140 4t144 4l-77 -202h-29q-139 18 -357 18z" />
<glyph unicode="&#x2013;" horiz-adv-x="1171" d="M0 471l72 201h28q158 -20 389 -21l398 4q45 0 140 4.5t144 4.5l-71 -199h-29q-152 18 -571 18z" />
<glyph unicode="&#x2014;" horiz-adv-x="1941" d="M2 471l74 201h28q160 -18 671 -18.5t718 0.5t302 5.5t144 4.5l-73 -199h-29q-152 18 -1335 18z" />
<glyph unicode="&#x2018;" horiz-adv-x="634" d="M166 1112q2 145 172 373l131 -35q-82 -149 -82 -262q0 -29 4 -53q27 -70 105 -134l-2 -32q-37 -37 -92.5 -69t-100.5 -42q-29 14 -39 25q-41 45 -80 131q-16 39 -16 98z" />
<glyph unicode="&#x2019;" horiz-adv-x="634" d="M139 1341l2 33q37 37 92.5 69t100.5 42q29 -14 39 -25q41 -45 80 -131q16 -39 16 -98q-2 -145 -172 -373l-131 35q82 149 82 262q0 29 -4 53q-27 70 -105 133z" />
<glyph unicode="&#x201a;" horiz-adv-x="659" d="M133 -330q70 104 97.5 177t27.5 164t-61 157q0 16 6 27q109 37 219 36q14 0 27 -2q18 -8 24 -22q29 -58 29 -146q0 -221 -226 -456z" />
<glyph unicode="&#x201c;" horiz-adv-x="1081" d="M129 1075q2 150 172 412l135 -29q0 -2 -12 -33.5t-14 -40t-12.5 -38t-12.5 -42t-9 -39t-8 -44t-3 -39.5q-4 -37 6 -84q20 -51 118 -123l-2 -33q-43 -43 -102 -78t-100 -43l-35 17q-21 16 -51.5 57t-50 80t-19.5 100zM557 1077q2 147 172 410l135 -29q0 -14 -16.5 -52 t-27.5 -73t-13 -48t-8 -44t-6 -68.5t6 -72.5q20 -51 119 -123l-3 -33q-43 -43 -102 -78t-100 -43l-35 17q-20 16 -51 57t-50.5 80t-19.5 100z" />
<glyph unicode="&#x201d;" horiz-adv-x="1081" d="M133 1331l2 33q43 43 102.5 78t100.5 43l35 -17q20 -16 51 -57t50.5 -80t19.5 -100q-2 -147 -172 -410l-136 29q0 14 16.5 52t28 73t13.5 48t8 44t6 69.5t-6 71.5q-20 51 -119 123zM561 1333l2 33q43 43 102.5 78t100.5 43l35 -17q20 -16 51 -57t50.5 -80t19.5 -100 q-2 -150 -172 -412l-136 29q0 2 12.5 33.5t14.5 40t12.5 38t12.5 42t9 39t8 44t3 39.5q4 37 -6 84q-20 51 -119 123z" />
<glyph unicode="&#x201e;" horiz-adv-x="1052" d="M133 -330q70 104 97.5 177t27.5 164t-61 157q0 16 6 27q109 37 219 36q14 0 27 -2q18 -8 24 -22q29 -58 29 -146q0 -221 -226 -456zM526 -330q70 104 97.5 177t27.5 164t-61 157q0 16 6 27q109 37 219 36q14 0 27 -2q18 -8 24 -22q29 -58 29 -146q0 -221 -225 -456z" />
<glyph unicode="&#x2022;" horiz-adv-x="1161" d="M291 717.5q0 58.5 8 103.5l39 37q72 39 177.5 60.5t157.5 21.5t83 -4l39 -21q43 -63 58 -169.5t15 -164t-10 -100.5l-39 -35q-72 -45 -181.5 -63t-155.5 -18t-70 4l-45 24q-43 55 -59.5 160.5t-16.5 164z" />
<glyph unicode="&#x202f;" horiz-adv-x="388" />
<glyph unicode="&#x2039;" horiz-adv-x="815" d="M117 555q98 55 131 84l332 287l118 -109l-57 -63l-221 -230l280 -291l-125 -118q-84 88 -110 108l-334 285z" />
<glyph unicode="&#x203a;" horiz-adv-x="815" d="M115 227l280 291l-221 230l-57 63l119 109l331 -287q33 -29 131 -84l-14 -47l-334 -285q-27 -20 -110 -108z" />
<glyph unicode="&#x205f;" horiz-adv-x="486" />
<glyph unicode="&#x20ac;" horiz-adv-x="1464" d="M10 520l70 152h100v24q0 31 4 88h-155l71 152h115q76 242 294 382t511 140q176 0 348 -76q-20 -109 -96 -219q-201 121 -404 121q-66 0 -135 -10q-176 -119 -225 -338h387q113 0 305 14l-67 -168h-644v-14q0 -35 5 -96h393q113 0 305 14l-68 -168h-602q51 -170 171 -264 t282 -94q72 0 176 39t174 80l82 -119l-53 -33q-240 -152 -481.5 -152t-434 137.5t-243.5 407.5h-185z" />
<glyph unicode="&#x25fc;" horiz-adv-x="993" d="M0 0v993h993v-993h-993z" />
</font>
</defs>
</svg>
